<svg version="1.1" id="Layer_1" xmlns="http://www.w3.org/2000/svg" xmlns:xlink="http://www.w3.org/1999/xlink" x="0px" y="0px"
	 width="100%" viewBox="0 0 1080 1080" enable-background="new 0 0 1080 1080" xml:space="preserve">
<path fill="#3F8308" opacity="1.000000" stroke="none" 
	d="
M501.000000,1081.000000 
	C334.019226,1081.000000 167.538422,1081.000000 1.028820,1081.000000 
	C1.028820,721.060730 1.028820,361.121521 1.028820,1.091133 
	C360.897675,1.091133 720.795410,1.091133 1080.846558,1.091133 
	C1080.846558,360.999939 1080.846558,720.999939 1080.846558,1081.000000 
	C887.787659,1081.000000 694.643860,1081.000000 501.000000,1081.000000 
M510.954529,513.953186 
	C510.954529,513.953186 510.911133,513.878784 510.327026,514.149780 
	C508.641968,516.265381 504.397400,517.815735 508.766571,521.206238 
	C508.766571,521.206238 508.754333,521.273254 509.203339,521.730896 
	C510.803406,520.822388 512.403503,519.913940 514.657593,518.832458 
	C519.055847,513.885559 523.776917,509.184143 527.770874,503.929993 
	C532.800781,497.312775 537.130371,490.168121 541.965332,483.396088 
	C545.300110,478.725189 549.975281,477.713776 554.097168,480.351929 
	C558.518799,483.181976 559.398010,487.910828 556.369446,492.997070 
	C553.135681,498.427856 550.013672,503.936859 546.528870,509.203949 
	C540.346130,518.548767 537.481873,528.700684 537.950867,539.896606 
	C538.403809,550.710083 534.729919,560.198853 527.722656,568.299988 
	C525.193604,571.223816 525.262207,573.063965 529.761108,575.437866 
	C534.615234,569.585632 539.596191,563.580505 544.537598,557.622986 
	C554.160461,567.605164 564.312439,566.634766 571.914490,555.044434 
	C572.634583,553.946533 574.822083,553.358521 576.349426,553.317261 
	C585.370117,553.073792 592.054077,545.723083 590.993347,536.839905 
	C590.770935,534.978027 590.139221,533.165039 589.657837,531.170837 
	C599.942017,531.170837 609.757080,531.329956 619.564392,531.124023 
	C628.529358,530.935730 635.047852,524.522888 635.136414,515.585938 
	C635.523926,476.455963 635.808228,437.324524 635.897827,398.193085 
	C635.904907,395.106415 634.133362,392.015686 633.035767,388.316895 
	C632.204773,387.402832 631.373779,386.488770 630.542297,385.486053 
	C630.542297,385.486053 630.454468,385.473297 630.063599,384.928375 
	C626.058838,383.607635 622.129333,381.558655 618.031860,381.135681 
	C611.775635,380.489899 605.403381,380.956757 599.080383,380.970245 
	C577.616150,381.015991 556.151306,380.993958 534.687866,381.152863 
	C523.837891,381.233185 516.529785,387.726990 516.525024,397.605743 
	C516.517029,414.064697 516.929016,430.523865 517.047607,447.679535 
	C517.126526,448.141113 517.205444,448.602722 517.090149,449.793457 
	C515.200928,450.064087 513.306519,450.303009 511.423309,450.610474 
	C498.935394,452.649353 487.396851,457.375336 476.614136,463.767120 
	C465.414673,470.405975 458.732849,480.354126 456.875000,493.415131 
	C455.868134,500.493896 454.493835,507.520813 453.509521,514.602234 
	C451.013672,532.557983 448.607086,550.526489 446.296570,568.506836 
	C446.114929,569.920288 446.607056,571.733887 447.461060,572.840820 
	C447.921204,573.437256 450.279541,573.425781 450.951141,572.799011 
	C451.924347,571.890686 452.362579,570.221497 452.655151,568.799866 
	C457.513702,545.194092 462.432373,521.599609 467.067566,497.949615 
	C468.877472,488.715027 471.379944,479.424774 479.523499,474.336334 
	C490.602051,467.413910 502.647125,462.031677 514.348511,456.129181 
	C515.038452,455.781189 516.357849,456.681061 517.192932,457.828644 
	C517.362244,459.216980 517.531494,460.605316 517.521729,462.912354 
	C517.690125,472.643829 517.858521,482.375336 517.265381,492.045410 
	C516.511902,492.054962 515.758423,492.064545 514.246521,491.947815 
	C510.298431,492.160889 509.439270,495.708954 510.268188,497.852753 
	C511.280853,500.471680 514.286682,502.319946 516.430603,504.501465 
	C516.774719,504.213684 517.118896,503.925903 517.463013,503.638123 
	C517.312561,504.426788 517.162109,505.215485 516.997559,506.000519 
	C516.997559,506.000519 517.005859,506.014923 516.455750,506.384857 
	C514.596008,508.895447 512.736328,511.406006 510.954529,513.953186 
M901.499939,555.992676 
	C823.430542,555.992676 745.361084,555.992676 667.336548,555.992676 
	C667.336548,561.998779 667.336548,567.397644 667.336548,572.882568 
	C752.775696,572.882568 837.856567,572.882568 923.258911,572.882568 
	C923.258911,567.224243 923.258911,561.825195 923.258911,555.992676 
	C916.108276,555.992676 909.304077,555.992676 901.499939,555.992676 
M412.343018,575.065430 
	C413.301727,574.449890 415.060089,573.872559 415.091614,573.212769 
	C415.326508,568.297180 415.219147,563.365173 415.219147,558.246216 
	C329.123322,558.246216 243.784500,558.246216 158.307861,558.246216 
	C158.307861,563.903381 158.307861,569.282776 158.307861,574.646423 
	C159.119415,574.813721 159.594727,574.997375 160.070099,574.997559 
	C243.835175,575.029114 327.600250,575.047607 412.343018,575.065430 
M404.082916,675.048401 
	C403.529907,664.083923 403.079498,653.112427 402.321930,642.162109 
	C402.197113,640.357727 400.724976,638.646667 399.875488,636.892456 
	C398.699219,638.583374 396.963562,640.119873 396.446198,641.992737 
	C394.500031,649.038818 392.981049,656.201965 391.237091,663.305298 
	C390.600800,665.897034 389.783295,668.444336 389.048462,671.011841 
	C388.498444,671.007385 387.948425,671.002991 387.398407,670.998535 
	C386.619812,668.428650 385.699036,665.892029 385.089294,663.282776 
	C383.273163,655.510193 381.679443,647.684021 379.740509,639.943420 
	C379.410675,638.626709 377.805237,637.629578 376.789154,636.484802 
	C375.956390,637.778625 374.980499,639.006531 374.343353,640.390442 
	C373.947021,641.251221 374.011810,642.345276 373.957458,643.339417 
	C373.049438,659.941650 372.097595,676.542236 371.373901,693.152649 
	C371.319336,694.405457 372.911499,695.730042 373.738220,697.021240 
	C375.069611,695.919617 376.845642,695.057129 377.604004,693.647278 
	C378.323761,692.309143 377.959717,690.396423 378.104797,688.739258 
	C378.496490,684.265991 378.905518,679.794189 379.307678,675.321838 
	C379.786285,675.313232 380.264862,675.304565 380.743439,675.295959 
	C382.149994,681.038635 383.414154,686.822693 385.063049,692.494873 
	C385.476013,693.915344 387.125854,694.976379 388.207245,696.202637 
	C389.326233,695.070862 391.039734,694.121399 391.453217,692.773254 
	C392.715546,688.657654 393.426208,684.375977 394.458130,680.185120 
	C394.894714,678.412048 395.597412,676.704529 396.179169,674.967224 
	C396.599731,675.031799 397.020325,675.096375 397.440918,675.161011 
	C397.773041,680.760315 398.121155,686.358826 398.430054,691.959412 
	C398.567749,694.456604 398.178192,697.256531 402.096283,697.023132 
	C406.253632,696.775513 404.979126,693.644409 404.925110,691.423462 
	C404.799774,686.275269 404.401703,681.133667 404.082916,675.048401 
M491.194855,658.498291 
	C491.208252,669.809326 491.237823,681.120300 491.221283,692.431335 
	C491.218048,694.651733 490.866730,696.804626 494.240021,696.890381 
	C497.719208,696.978821 497.881805,694.844360 497.910675,692.324707 
	C497.937347,689.996338 497.889557,687.636292 498.269226,685.355896 
	C498.453979,684.246277 499.539490,683.286499 500.217255,682.258911 
	C501.105774,683.107910 502.480774,683.809998 502.789825,684.833923 
	C503.648865,687.679810 504.323029,690.636475 504.587067,693.592529 
	C504.882355,696.897644 506.777496,697.349609 509.388519,696.991028 
	C512.821594,696.519592 511.329071,694.240479 510.952789,692.447266 
	C510.406921,689.846069 509.477783,687.288391 509.255768,684.666138 
	C509.014984,681.822144 508.384552,678.315186 509.684052,676.157227 
	C515.275574,666.871521 515.323120,657.179871 512.798523,647.247681 
	C510.871704,639.667480 504.539093,636.044495 496.489685,636.481323 
	C492.448792,636.700562 491.277283,638.461792 491.301666,642.038879 
	C491.336792,647.191223 491.234344,652.344604 491.194855,658.498291 
M710.914307,649.703613 
	C708.084656,639.592468 702.992920,635.959534 693.421204,636.574646 
	C689.843811,636.804565 688.819580,638.368347 688.836792,641.557434 
	C688.865540,646.873047 688.703308,652.189453 688.693176,657.505615 
	C688.668579,670.422974 688.685181,683.340454 688.685181,696.174744 
	C693.345581,697.645874 695.564148,696.634460 695.314575,691.826782 
	C695.195007,689.523560 695.506836,687.164001 695.918579,684.883301 
	C696.092773,683.918213 697.027283,683.090393 697.616272,682.200256 
	C698.415588,682.896729 699.688782,683.459229 699.930420,684.313477 
	C700.876221,687.657349 701.163574,691.222351 702.406128,694.429871 
	C702.883118,695.661133 705.262634,696.155334 706.775208,696.985413 
	C707.376709,695.762024 708.616943,694.450195 708.462097,693.331482 
	C707.962341,689.720337 706.725830,686.211548 706.221802,682.600647 
	C705.942139,680.597534 705.870544,678.023560 706.881042,676.473145 
	C712.164185,668.367004 712.434998,659.622253 710.914307,649.703613 
M453.787994,659.292297 
	C453.824005,670.254578 453.889282,681.216919 453.875153,692.179138 
	C453.871704,694.857300 453.797852,697.230103 457.618408,697.066040 
	C461.706238,696.890625 460.773682,694.042908 460.745056,691.679565 
	C460.666595,685.201294 460.401337,678.722534 460.473969,672.246887 
	C460.497711,670.129761 461.332947,668.021729 461.797028,665.909546 
	C462.266785,665.866272 462.736572,665.822937 463.206329,665.779663 
	C464.037567,667.438965 465.088837,669.026062 465.661804,670.770264 
	C468.092957,678.170959 470.423035,685.605652 472.706970,693.053467 
	C473.969757,697.171387 476.357147,697.612000 480.256561,695.487610 
	C477.113037,685.356018 474.414551,675.252625 470.790955,665.492737 
	C468.518250,659.371460 469.635437,654.285217 472.470032,648.932983 
	C474.339905,645.402222 475.747040,641.626343 477.440491,637.780579 
	C471.437134,636.630859 471.453064,636.640015 469.002686,640.915344 
	C466.822235,644.719604 464.601135,648.500610 462.397980,652.291870 
	C461.872894,652.044678 461.347809,651.797424 460.822754,651.550232 
	C460.601929,647.760986 460.721680,643.905334 460.002106,640.213318 
	C459.689392,638.608643 457.651245,637.340210 456.396729,635.919006 
	C455.579926,637.278564 454.123047,638.607727 454.056793,640.002991 
	C453.765289,646.142761 453.875122,652.301636 453.787994,659.292297 
M607.123169,696.026489 
	C609.164307,692.795227 612.836914,689.625366 612.961243,686.321899 
	C613.472778,672.739075 613.137024,659.106873 612.628174,645.510986 
	C612.404724,639.540039 608.166626,635.956482 602.652649,635.716675 
	C596.957642,635.469055 592.538147,638.326233 592.159241,644.573120 
	C591.306885,658.624695 590.806763,672.763733 591.414307,686.813110 
	C591.778687,695.238342 597.954956,698.394287 607.123169,696.026489 
M433.882660,637.554382 
	C428.403412,634.716919 425.995026,635.415283 424.944458,640.881348 
	C423.004089,650.977112 421.454742,661.149414 419.824982,671.303101 
	C418.550201,679.245422 417.400085,687.207825 416.199158,695.131165 
	C422.733551,697.453308 423.193207,693.354126 423.674713,689.429932 
	C424.132843,685.695923 426.149200,683.929138 429.893921,683.652649 
	C433.730865,683.369263 435.306915,685.368530 435.902557,688.756348 
	C436.132111,690.062012 436.749329,691.333679 436.786621,692.632385 
	C436.885193,696.068848 439.169769,696.575012 441.520844,695.729675 
	C442.510742,695.373840 443.351257,693.089355 443.313904,691.707214 
	C443.238373,688.913269 442.541443,686.132507 442.057190,683.353882 
	C439.438995,668.330566 436.807465,653.309570 433.882660,637.554382 
M631.751343,692.633057 
	C632.242737,695.336426 633.425171,697.906128 636.529846,696.916199 
	C638.167603,696.393921 639.251404,693.996582 640.461304,692.354492 
	C640.816650,691.872070 640.769287,691.079773 640.868652,690.423889 
	C642.185669,681.728821 643.544495,673.039795 644.794678,664.335144 
	C646.110901,655.170410 647.321472,645.990540 648.572693,636.857361 
	C644.476868,635.045227 642.388672,636.050232 641.854248,640.081299 
	C641.198730,645.026306 640.511292,649.967712 639.775757,654.901428 
	C639.015808,659.998962 638.181580,665.085449 637.379883,670.176758 
	C636.727661,670.171143 636.075439,670.165527 635.423279,670.159912 
	C634.993774,668.159302 634.448792,666.175537 634.155151,664.155212 
	C633.008545,656.264893 632.029785,648.349060 630.771423,640.477356 
	C630.515076,638.874084 629.705872,636.700562 628.478760,636.040466 
	C625.381226,634.374268 623.542786,636.489258 624.192993,641.075623 
	C626.593811,658.013062 629.105042,674.934875 631.751343,692.633057 
M577.808533,679.116394 
	C572.885498,677.397705 572.448914,680.335022 571.855164,684.161987 
	C571.549072,686.134949 569.307068,687.807617 567.939819,689.615967 
	C566.476196,687.933960 564.052246,686.411255 563.741577,684.538025 
	C563.014038,680.151978 563.186218,675.597473 563.199707,671.111877 
	C563.223206,663.292969 563.162476,655.457825 563.706787,647.669312 
	C563.822632,646.011353 566.377747,644.523926 567.809082,642.957947 
	C569.110168,644.559204 570.510498,646.093567 571.659058,647.797668 
	C572.066711,648.402466 571.559753,649.668396 571.996643,650.200073 
	C573.067810,651.503601 574.445435,652.555420 575.699707,653.708496 
	C576.693970,652.443665 578.355896,651.261841 578.526123,649.894470 
	C578.781555,647.841919 578.171265,645.610291 577.610229,643.541321 
	C576.148865,638.152161 572.996765,636.003418 567.304749,636.261597 
	C561.730713,636.514465 557.939148,639.514282 557.167786,644.711914 
	C556.656128,648.159241 556.424683,651.679688 556.431519,655.166687 
	C556.452759,665.965942 556.248657,676.789917 556.923950,687.554688 
	C557.336060,694.123352 562.029175,697.462158 568.105835,697.045959 
	C575.438965,696.543762 579.858459,689.053650 577.808533,679.116394 
M526.646545,668.498230 
	C526.597961,674.454529 526.602783,680.411865 526.488953,686.366882 
	C526.288940,696.832642 526.424683,697.003540 536.706543,696.984497 
	C537.537415,696.982971 538.368286,697.026367 539.199158,697.024902 
	C541.799377,697.020325 544.134888,697.067139 544.202759,693.245239 
	C544.269531,689.488831 541.987671,689.434204 539.389221,689.157104 
	C537.656006,688.972290 534.636536,688.739136 534.478699,688.023438 
	C533.852783,685.185547 533.601196,682.010559 534.328125,679.255249 
	C534.615234,678.167114 537.820801,677.838745 539.705750,677.188293 
	C540.310974,676.979431 540.942810,676.847412 541.627136,676.662781 
	C542.277283,672.810852 543.347107,669.112488 537.177246,669.248901 
	C536.155273,669.271484 534.278870,666.748108 534.165283,665.294312 
	C533.752014,660.003662 534.091614,654.658508 533.808838,649.351929 
	C533.611816,645.655090 535.264221,643.911804 538.675232,644.140564 
	C543.978943,644.496216 545.216125,642.130005 543.547302,636.821350 
	C540.477600,636.821350 537.199280,636.893127 533.925415,636.804321 
	C529.197266,636.676025 526.849060,638.746765 526.855164,643.624268 
	C526.865112,651.581848 526.673645,659.539734 526.646545,668.498230 
M673.386719,677.033325 
	C675.962830,671.603210 675.471924,670.796143 670.189026,669.315369 
	C668.796509,668.925049 667.073364,666.923706 666.902222,665.494507 
	C666.410645,661.389099 666.648926,657.197632 666.576599,653.040405 
	C666.445923,645.527527 666.458862,645.617676 673.729797,643.989258 
	C674.893372,643.728699 676.366211,642.396851 676.643372,641.295410 
	C676.942261,640.107605 676.065735,637.450562 675.595459,637.425415 
	C671.179626,637.189270 666.481445,636.553040 662.427551,637.825256 
	C660.626282,638.390503 659.240967,643.032104 659.162659,645.864746 
	C658.809265,658.649902 659.032227,671.449951 658.968933,684.244324 
	C658.904541,697.265625 658.864075,697.245789 671.553162,697.072266 
	C674.219727,697.035767 676.609985,696.949585 676.749695,693.337280 
	C676.902039,689.399841 674.269348,689.316040 671.465759,689.077454 
	C669.927979,688.946594 667.232300,688.554016 667.120605,687.917603 
	C666.617004,685.047729 666.302612,681.891418 667.082642,679.171753 
	C667.403381,678.053467 670.652710,677.775146 673.386719,677.033325 
z"/>
<path fill="#E0DED0" opacity="1.000000" stroke="none" 
	d="
M633.188354,388.926849 
	C634.133362,392.015686 635.904907,395.106415 635.897827,398.193085 
	C635.808228,437.324524 635.523926,476.455963 635.136414,515.585938 
	C635.047852,524.522888 628.529358,530.935730 619.564392,531.124023 
	C609.757080,531.329956 599.942017,531.170837 589.657837,531.170837 
	C590.139221,533.165039 590.770935,534.978027 590.993347,536.839905 
	C592.054077,545.723083 585.370117,553.073792 576.349426,553.317261 
	C574.822083,553.358521 572.634583,553.946533 571.914490,555.044434 
	C564.312439,566.634766 554.160461,567.605164 544.537598,557.622986 
	C539.596191,563.580505 534.615234,569.585632 529.761108,575.437866 
	C525.262207,573.063965 525.193604,571.223816 527.722656,568.299988 
	C534.729919,560.198853 538.403809,550.710083 537.950867,539.896606 
	C537.481873,528.700684 540.346130,518.548767 546.528870,509.203949 
	C550.013672,503.936859 553.135681,498.427856 556.369446,492.997070 
	C559.398010,487.910828 558.518799,483.181976 554.097168,480.351929 
	C549.975281,477.713776 545.300110,478.725189 541.965332,483.396088 
	C537.130371,490.168121 532.800781,497.312775 527.770874,503.929993 
	C523.776917,509.184143 519.055847,513.885559 514.100525,518.678711 
	C512.666016,516.976196 511.788574,515.427490 510.911133,513.878784 
	C510.911133,513.878784 510.954529,513.953186 511.243408,513.964905 
	C514.447632,514.500610 516.362610,513.916809 516.195068,510.322784 
	C516.128845,508.902527 516.716125,507.451782 517.005859,506.014923 
	C517.005859,506.014923 516.997559,506.000519 517.294861,505.866180 
	C519.696289,503.717651 518.472656,502.942322 516.486633,501.874878 
	C514.449463,500.779907 512.740845,499.073547 511.215851,497.889130 
	C512.948242,495.230469 513.976624,493.652283 515.004944,492.074127 
	C515.758423,492.064545 516.511902,492.054962 517.697388,492.253174 
	C518.735779,492.302460 519.342163,492.143951 520.258484,491.894135 
	C521.699707,491.209778 522.831055,490.616730 524.091003,490.298645 
	C526.796265,492.489929 526.714172,490.429199 526.963440,488.436615 
	C529.045959,484.664612 530.968323,481.168213 533.115173,477.815613 
	C539.303345,468.152374 550.054688,465.374390 559.535645,470.892639 
	C568.800110,476.284882 571.819946,487.495544 566.413757,497.330231 
	C563.854675,501.985565 560.797302,506.365387 558.009888,510.897186 
	C555.530273,514.928589 553.111633,518.997437 550.380127,523.523499 
	C551.946655,523.692688 552.570862,523.831909 553.191284,523.816772 
	C574.970642,523.286743 596.750916,522.788757 618.527649,522.165466 
	C623.707214,522.017212 625.771606,519.640320 625.736633,514.111816 
	C625.581665,489.657532 625.336792,465.203857 625.152771,440.749756 
	C625.038879,425.606659 624.975830,410.463135 624.760620,395.080383 
	C624.393799,394.567505 624.156250,394.294037 623.952148,394.018860 
	C623.985474,394.017181 623.977661,394.083496 623.809448,393.887939 
	C623.368469,393.484985 623.095703,393.277588 622.555176,393.027008 
	C621.857117,392.665527 621.426758,392.347260 620.850952,391.723572 
	C616.807739,390.947449 612.909973,390.476746 608.981567,389.661926 
	C608.629089,386.884033 608.307251,384.450317 608.363647,382.014069 
	C609.498474,382.012360 610.254944,382.013153 611.088745,382.366028 
	C612.246582,386.254730 615.017639,387.135132 618.138977,386.517792 
	C618.699219,386.406982 618.722961,383.583618 619.362732,382.057098 
	C623.305542,383.225464 626.880005,384.349396 630.454468,385.473297 
	C630.454468,385.473297 630.542297,385.486053 630.402832,385.845764 
	C628.589905,389.959198 630.829712,389.506836 633.188354,388.926849 
M547.453613,538.813721 
	C547.303955,540.971863 547.437683,543.196472 546.949890,545.275269 
	C545.650513,550.812988 550.446899,551.678711 553.460449,553.086975 
	C555.279480,553.937012 558.771423,553.116211 560.526917,551.765869 
	C563.491272,549.485657 562.322205,546.182434 560.911255,543.118530 
	C558.994263,538.955933 557.350647,534.667419 555.455688,530.110474 
	C548.357178,528.794495 548.355164,528.794250 547.505127,536.434265 
	C547.450012,536.929565 547.459961,537.432007 547.453613,538.813721 
M565.527466,533.127502 
	C567.477356,535.787292 569.195496,538.673706 571.477478,541.008972 
	C572.577759,542.134888 575.001770,543.053528 576.371643,542.622131 
	C580.183105,541.421570 581.751343,538.240784 580.755432,534.378479 
	C580.362366,532.854065 578.883240,530.585510 577.714478,530.466492 
	C573.204468,530.007690 568.620117,530.280334 563.487671,530.280334 
	C564.207397,531.341980 564.636841,531.975464 565.527466,533.127502 
M524.956055,499.604004 
	C525.316406,499.415924 525.676697,499.227844 526.037048,499.039764 
	C525.725952,498.773895 525.414795,498.507996 525.103699,498.242096 
	C524.922729,498.635986 524.741760,499.029846 524.956055,499.604004 
z"/>
<path fill="#E4E0D6" opacity="1.000000" stroke="none" 
	d="
M901.999878,555.992676 
	C909.304077,555.992676 916.108276,555.992676 923.258911,555.992676 
	C923.258911,561.825195 923.258911,567.224243 923.258911,572.882568 
	C837.856567,572.882568 752.775696,572.882568 667.336548,572.882568 
	C667.336548,567.397644 667.336548,561.998779 667.336548,555.992676 
	C745.361084,555.992676 823.430542,555.992676 901.999878,555.992676 
z"/>
<path fill="#E4E0D5" opacity="1.000000" stroke="none" 
	d="
M411.854187,575.066040 
	C327.600250,575.047607 243.835175,575.029114 160.070099,574.997559 
	C159.594727,574.997375 159.119415,574.813721 158.307861,574.646423 
	C158.307861,569.282776 158.307861,563.903381 158.307861,558.246216 
	C243.784500,558.246216 329.123322,558.246216 415.219147,558.246216 
	C415.219147,563.365173 415.326508,568.297180 415.091614,573.212769 
	C415.060089,573.872559 413.301727,574.449890 411.854187,575.066040 
z"/>
<path fill="#DDDECC" opacity="1.000000" stroke="none" 
	d="
M517.384338,457.000244 
	C516.357849,456.681061 515.038452,455.781189 514.348511,456.129181 
	C502.647125,462.031677 490.602051,467.413910 479.523499,474.336334 
	C471.379944,479.424774 468.877472,488.715027 467.067566,497.949615 
	C462.432373,521.599609 457.513702,545.194092 452.655151,568.799866 
	C452.362579,570.221497 451.924347,571.890686 450.951141,572.799011 
	C450.279541,573.425781 447.921204,573.437256 447.461060,572.840820 
	C446.607056,571.733887 446.114929,569.920288 446.296570,568.506836 
	C448.607086,550.526489 451.013672,532.557983 453.509521,514.602234 
	C454.493835,507.520813 455.868134,500.493896 456.875000,493.415131 
	C458.732849,480.354126 465.414673,470.405975 476.614136,463.767120 
	C487.396851,457.375336 498.935394,452.649353 511.423309,450.610474 
	C513.306519,450.303009 515.200928,450.064087 517.335693,449.737122 
	C517.055359,452.108185 520.766724,454.649658 517.384338,457.000244 
z"/>
<path fill="#DDDDCC" opacity="1.000000" stroke="none" 
	d="
M404.098572,675.518921 
	C404.401703,681.133667 404.799774,686.275269 404.925110,691.423462 
	C404.979126,693.644409 406.253632,696.775513 402.096283,697.023132 
	C398.178192,697.256531 398.567749,694.456604 398.430054,691.959412 
	C398.121155,686.358826 397.773041,680.760315 397.440918,675.161011 
	C397.020325,675.096375 396.599731,675.031799 396.179169,674.967224 
	C395.597412,676.704529 394.894714,678.412048 394.458130,680.185120 
	C393.426208,684.375977 392.715546,688.657654 391.453217,692.773254 
	C391.039734,694.121399 389.326233,695.070862 388.207245,696.202637 
	C387.125854,694.976379 385.476013,693.915344 385.063049,692.494873 
	C383.414154,686.822693 382.149994,681.038635 380.743439,675.295959 
	C380.264862,675.304565 379.786285,675.313232 379.307678,675.321838 
	C378.905518,679.794189 378.496490,684.265991 378.104797,688.739258 
	C377.959717,690.396423 378.323761,692.309143 377.604004,693.647278 
	C376.845642,695.057129 375.069611,695.919617 373.738220,697.021240 
	C372.911499,695.730042 371.319336,694.405457 371.373901,693.152649 
	C372.097595,676.542236 373.049438,659.941650 373.957458,643.339417 
	C374.011810,642.345276 373.947021,641.251221 374.343353,640.390442 
	C374.980499,639.006531 375.956390,637.778625 376.789154,636.484802 
	C377.805237,637.629578 379.410675,638.626709 379.740509,639.943420 
	C381.679443,647.684021 383.273163,655.510193 385.089294,663.282776 
	C385.699036,665.892029 386.619812,668.428650 387.398407,670.998535 
	C387.948425,671.002991 388.498444,671.007385 389.048462,671.011841 
	C389.783295,668.444336 390.600800,665.897034 391.237091,663.305298 
	C392.981049,656.201965 394.500031,649.038818 396.446198,641.992737 
	C396.963562,640.119873 398.699219,638.583374 399.875488,636.892456 
	C400.724976,638.646667 402.197113,640.357727 402.321930,642.162109 
	C403.079498,653.112427 403.529907,664.083923 404.098572,675.518921 
z"/>
<path fill="#DADBC8" opacity="1.000000" stroke="none" 
	d="
M491.192749,657.997925 
	C491.234344,652.344604 491.336792,647.191223 491.301666,642.038879 
	C491.277283,638.461792 492.448792,636.700562 496.489685,636.481323 
	C504.539093,636.044495 510.871704,639.667480 512.798523,647.247681 
	C515.323120,657.179871 515.275574,666.871521 509.684052,676.157227 
	C508.384552,678.315186 509.014984,681.822144 509.255768,684.666138 
	C509.477783,687.288391 510.406921,689.846069 510.952789,692.447266 
	C511.329071,694.240479 512.821594,696.519592 509.388519,696.991028 
	C506.777496,697.349609 504.882355,696.897644 504.587067,693.592529 
	C504.323029,690.636475 503.648865,687.679810 502.789825,684.833923 
	C502.480774,683.809998 501.105774,683.107910 500.217255,682.258911 
	C499.539490,683.286499 498.453979,684.246277 498.269226,685.355896 
	C497.889557,687.636292 497.937347,689.996338 497.910675,692.324707 
	C497.881805,694.844360 497.719208,696.978821 494.240021,696.890381 
	C490.866730,696.804626 491.218048,694.651733 491.221283,692.431335 
	C491.237823,681.120300 491.208252,669.809326 491.192749,657.997925 
M507.186218,661.231995 
	C507.692383,649.830444 505.839417,645.359375 498.978882,643.048523 
	C496.863800,653.190613 498.387360,663.147034 497.959839,673.412598 
	C504.440155,671.786987 506.375214,669.095459 507.186218,661.231995 
z"/>
<path fill="#DDDDCC" opacity="1.000000" stroke="none" 
	d="
M710.961853,650.119507 
	C712.434998,659.622253 712.164185,668.367004 706.881042,676.473145 
	C705.870544,678.023560 705.942139,680.597534 706.221802,682.600647 
	C706.725830,686.211548 707.962341,689.720337 708.462097,693.331482 
	C708.616943,694.450195 707.376709,695.762024 706.775208,696.985413 
	C705.262634,696.155334 702.883118,695.661133 702.406128,694.429871 
	C701.163574,691.222351 700.876221,687.657349 699.930420,684.313477 
	C699.688782,683.459229 698.415588,682.896729 697.616272,682.200256 
	C697.027283,683.090393 696.092773,683.918213 695.918579,684.883301 
	C695.506836,687.164001 695.195007,689.523560 695.314575,691.826782 
	C695.564148,696.634460 693.345581,697.645874 688.685181,696.174744 
	C688.685181,683.340454 688.668579,670.422974 688.693176,657.505615 
	C688.703308,652.189453 688.865540,646.873047 688.836792,641.557434 
	C688.819580,638.368347 689.843811,636.804565 693.421204,636.574646 
	C702.992920,635.959534 708.084656,639.592468 710.961853,650.119507 
M704.663879,663.736938 
	C705.852173,651.629089 703.616455,645.523987 696.250671,643.032715 
	C694.514404,653.266663 695.257874,663.228821 695.700500,673.463501 
	C701.860107,672.566528 703.045532,668.448853 704.663879,663.736938 
z"/>
<path fill="#DDDECC" opacity="1.000000" stroke="none" 
	d="
M453.813782,658.872925 
	C453.875122,652.301636 453.765289,646.142761 454.056793,640.002991 
	C454.123047,638.607727 455.579926,637.278564 456.396729,635.919006 
	C457.651245,637.340210 459.689392,638.608643 460.002106,640.213318 
	C460.721680,643.905334 460.601929,647.760986 460.822754,651.550232 
	C461.347809,651.797424 461.872894,652.044678 462.397980,652.291870 
	C464.601135,648.500610 466.822235,644.719604 469.002686,640.915344 
	C471.453064,636.640015 471.437134,636.630859 477.440491,637.780579 
	C475.747040,641.626343 474.339905,645.402222 472.470032,648.932983 
	C469.635437,654.285217 468.518250,659.371460 470.790955,665.492737 
	C474.414551,675.252625 477.113037,685.356018 480.256561,695.487610 
	C476.357147,697.612000 473.969757,697.171387 472.706970,693.053467 
	C470.423035,685.605652 468.092957,678.170959 465.661804,670.770264 
	C465.088837,669.026062 464.037567,667.438965 463.206329,665.779663 
	C462.736572,665.822937 462.266785,665.866272 461.797028,665.909546 
	C461.332947,668.021729 460.497711,670.129761 460.473969,672.246887 
	C460.401337,678.722534 460.666595,685.201294 460.745056,691.679565 
	C460.773682,694.042908 461.706238,696.890625 457.618408,697.066040 
	C453.797852,697.230103 453.871704,694.857300 453.875153,692.179138 
	C453.889282,681.216919 453.824005,670.254578 453.813782,658.872925 
z"/>
<path fill="#DDDECC" opacity="1.000000" stroke="none" 
	d="
M606.762207,696.188965 
	C597.954956,698.394287 591.778687,695.238342 591.414307,686.813110 
	C590.806763,672.763733 591.306885,658.624695 592.159241,644.573120 
	C592.538147,638.326233 596.957642,635.469055 602.652649,635.716675 
	C608.166626,635.956482 612.404724,639.540039 612.628174,645.510986 
	C613.137024,659.106873 613.472778,672.739075 612.961243,686.321899 
	C612.836914,689.625366 609.164307,692.795227 606.762207,696.188965 
M605.561951,645.452637 
	C602.428040,641.987122 599.826660,642.319885 598.512451,646.463379 
	C598.070068,647.858215 597.942566,649.403137 597.941833,650.879578 
	C597.936768,661.333801 597.988464,671.788086 598.062073,682.242065 
	C598.071350,683.561951 597.924255,685.114258 598.542419,686.142212 
	C599.385742,687.544739 601.102295,689.648376 602.069702,689.465820 
	C603.559387,689.184631 604.943115,687.365540 605.956055,685.909607 
	C606.540833,685.069031 606.440674,683.658813 606.425354,682.507996 
	C606.264954,670.424561 606.059326,658.341736 605.561951,645.452637 
z"/>
<path fill="#DCDDCA" opacity="1.000000" stroke="none" 
	d="
M434.031586,637.921082 
	C436.807465,653.309570 439.438995,668.330566 442.057190,683.353882 
	C442.541443,686.132507 443.238373,688.913269 443.313904,691.707214 
	C443.351257,693.089355 442.510742,695.373840 441.520844,695.729675 
	C439.169769,696.575012 436.885193,696.068848 436.786621,692.632385 
	C436.749329,691.333679 436.132111,690.062012 435.902557,688.756348 
	C435.306915,685.368530 433.730865,683.369263 429.893921,683.652649 
	C426.149200,683.929138 424.132843,685.695923 423.674713,689.429932 
	C423.193207,693.354126 422.733551,697.453308 416.199158,695.131165 
	C417.400085,687.207825 418.550201,679.245422 419.824982,671.303101 
	C421.454742,661.149414 423.004089,650.977112 424.944458,640.881348 
	C425.995026,635.415283 428.403412,634.716919 434.031586,637.921082 
M429.097595,652.843567 
	C428.116852,658.711243 426.944672,664.557312 426.279358,670.460571 
	C426.094727,672.098816 427.055634,674.223145 428.190002,675.506531 
	C428.780548,676.174622 431.676483,676.025513 432.155945,675.316162 
	C433.141937,673.857239 433.673187,671.741211 433.550568,669.953369 
	C433.268188,665.837036 432.634216,661.725342 431.834839,657.672546 
	C431.462433,655.784424 430.373688,654.037537 429.097595,652.843567 
z"/>
<path fill="#DCDDCA" opacity="1.000000" stroke="none" 
	d="
M631.663086,692.247803 
	C629.105042,674.934875 626.593811,658.013062 624.192993,641.075623 
	C623.542786,636.489258 625.381226,634.374268 628.478760,636.040466 
	C629.705872,636.700562 630.515076,638.874084 630.771423,640.477356 
	C632.029785,648.349060 633.008545,656.264893 634.155151,664.155212 
	C634.448792,666.175537 634.993774,668.159302 635.423279,670.159912 
	C636.075439,670.165527 636.727661,670.171143 637.379883,670.176758 
	C638.181580,665.085449 639.015808,659.998962 639.775757,654.901428 
	C640.511292,649.967712 641.198730,645.026306 641.854248,640.081299 
	C642.388672,636.050232 644.476868,635.045227 648.572693,636.857361 
	C647.321472,645.990540 646.110901,655.170410 644.794678,664.335144 
	C643.544495,673.039795 642.185669,681.728821 640.868652,690.423889 
	C640.769287,691.079773 640.816650,691.872070 640.461304,692.354492 
	C639.251404,693.996582 638.167603,696.393921 636.529846,696.916199 
	C633.425171,697.906128 632.242737,695.336426 631.663086,692.247803 
z"/>
<path fill="#DADBC8" opacity="1.000000" stroke="none" 
	d="
M578.087891,679.385742 
	C579.858459,689.053650 575.438965,696.543762 568.105835,697.045959 
	C562.029175,697.462158 557.336060,694.123352 556.923950,687.554688 
	C556.248657,676.789917 556.452759,665.965942 556.431519,655.166687 
	C556.424683,651.679688 556.656128,648.159241 557.167786,644.711914 
	C557.939148,639.514282 561.730713,636.514465 567.304749,636.261597 
	C572.996765,636.003418 576.148865,638.152161 577.610229,643.541321 
	C578.171265,645.610291 578.781555,647.841919 578.526123,649.894470 
	C578.355896,651.261841 576.693970,652.443665 575.699707,653.708496 
	C574.445435,652.555420 573.067810,651.503601 571.996643,650.200073 
	C571.559753,649.668396 572.066711,648.402466 571.659058,647.797668 
	C570.510498,646.093567 569.110168,644.559204 567.809082,642.957947 
	C566.377747,644.523926 563.822632,646.011353 563.706787,647.669312 
	C563.162476,655.457825 563.223206,663.292969 563.199707,671.111877 
	C563.186218,675.597473 563.014038,680.151978 563.741577,684.538025 
	C564.052246,686.411255 566.476196,687.933960 567.939819,689.615967 
	C569.307068,687.807617 571.549072,686.134949 571.855164,684.161987 
	C572.448914,680.335022 572.885498,677.397705 578.087891,679.385742 
z"/>
<path fill="#DDDECC" opacity="1.000000" stroke="none" 
	d="
M630.259033,385.200836 
	C626.880005,384.349396 623.305542,383.225464 618.919434,382.052551 
	C615.742371,382.007050 613.376892,382.010498 611.011475,382.013977 
	C610.254944,382.013153 609.498474,382.012360 607.896790,382.011475 
	C596.556702,382.010010 586.042664,381.612549 575.572327,382.119812 
	C565.295959,382.617706 555.045776,383.883881 544.821289,385.120239 
	C540.452454,385.648499 536.177979,386.956146 531.860596,387.909637 
	C531.919373,388.608429 531.978088,389.307251 532.036804,390.006042 
	C557.695251,390.006042 583.353760,390.006042 609.012207,390.006042 
	C612.909973,390.476746 616.807739,390.947449 620.382751,391.740234 
	C591.912476,391.903900 563.764954,391.673920 535.617615,391.699158 
	C532.845459,391.701630 530.074829,393.268677 527.042053,394.175110 
	C526.672546,394.905975 526.564453,395.571259 526.435364,396.690094 
	C526.352905,405.301056 526.390930,413.460693 526.208557,421.615387 
	C525.855469,437.411865 525.378235,453.205505 524.761230,468.666504 
	C524.380005,462.888885 524.190002,457.445038 524.002136,451.532837 
	C524.005310,445.035217 524.006287,439.006012 524.007141,432.524597 
	C524.007080,429.053558 524.007202,426.034729 524.007324,422.545593 
	C524.004333,416.112152 524.007751,410.148987 523.995911,404.185822 
	C523.990112,401.277649 523.164551,399.032898 518.380371,398.745178 
	C518.255676,406.650818 518.134705,414.320862 518.010681,422.452118 
	C518.005859,426.609650 518.004089,430.305939 518.002563,434.378418 
	C518.001831,435.507568 518.000916,436.260498 517.999390,437.454132 
	C517.720642,440.924194 517.442444,443.953583 517.164185,446.982941 
	C516.929016,430.523865 516.517029,414.064697 516.525024,397.605743 
	C516.529785,387.726990 523.837891,381.233185 534.687866,381.152863 
	C556.151306,380.993958 577.616150,381.015991 599.080383,380.970245 
	C605.403381,380.956757 611.775635,380.489899 618.031860,381.135681 
	C622.129333,381.558655 626.058838,383.607635 630.259033,385.200836 
M521.981873,387.743469 
	C520.970886,389.996796 519.959839,392.250122 518.948853,394.503418 
	C519.380859,394.672791 519.812927,394.842163 520.244934,395.011536 
	C521.567383,393.009735 522.948425,391.040649 524.114746,388.951691 
	C524.222534,388.758667 522.963501,387.802582 521.981873,387.743469 
M527.182007,388.787018 
	C527.138489,389.585846 527.095032,390.384705 527.051575,391.183563 
	C527.714600,390.831787 528.377563,390.480011 529.040527,390.128204 
	C528.588013,389.590088 528.135498,389.051971 527.182007,388.787018 
z"/>
<path fill="#DDDDCC" opacity="1.000000" stroke="none" 
	d="
M526.606812,667.997864 
	C526.673645,659.539734 526.865112,651.581848 526.855164,643.624268 
	C526.849060,638.746765 529.197266,636.676025 533.925415,636.804321 
	C537.199280,636.893127 540.477600,636.821350 543.547302,636.821350 
	C545.216125,642.130005 543.978943,644.496216 538.675232,644.140564 
	C535.264221,643.911804 533.611816,645.655090 533.808838,649.351929 
	C534.091614,654.658508 533.752014,660.003662 534.165283,665.294312 
	C534.278870,666.748108 536.155273,669.271484 537.177246,669.248901 
	C543.347107,669.112488 542.277283,672.810852 541.627136,676.662781 
	C540.942810,676.847412 540.310974,676.979431 539.705750,677.188293 
	C537.820801,677.838745 534.615234,678.167114 534.328125,679.255249 
	C533.601196,682.010559 533.852783,685.185547 534.478699,688.023438 
	C534.636536,688.739136 537.656006,688.972290 539.389221,689.157104 
	C541.987671,689.434204 544.269531,689.488831 544.202759,693.245239 
	C544.134888,697.067139 541.799377,697.020325 539.199158,697.024902 
	C538.368286,697.026367 537.537415,696.982971 536.706543,696.984497 
	C526.424683,697.003540 526.288940,696.832642 526.488953,686.366882 
	C526.602783,680.411865 526.597961,674.454529 526.606812,667.997864 
z"/>
<path fill="#DCDDCA" opacity="1.000000" stroke="none" 
	d="
M672.978271,677.074036 
	C670.652710,677.775146 667.403381,678.053467 667.082642,679.171753 
	C666.302612,681.891418 666.617004,685.047729 667.120605,687.917603 
	C667.232300,688.554016 669.927979,688.946594 671.465759,689.077454 
	C674.269348,689.316040 676.902039,689.399841 676.749695,693.337280 
	C676.609985,696.949585 674.219727,697.035767 671.553162,697.072266 
	C658.864075,697.245789 658.904541,697.265625 658.968933,684.244324 
	C659.032227,671.449951 658.809265,658.649902 659.162659,645.864746 
	C659.240967,643.032104 660.626282,638.390503 662.427551,637.825256 
	C666.481445,636.553040 671.179626,637.189270 675.595459,637.425415 
	C676.065735,637.450562 676.942261,640.107605 676.643372,641.295410 
	C676.366211,642.396851 674.893372,643.728699 673.729797,643.989258 
	C666.458862,645.617676 666.445923,645.527527 666.576599,653.040405 
	C666.648926,657.197632 666.410645,661.389099 666.902222,665.494507 
	C667.073364,666.923706 668.796509,668.925049 670.189026,669.315369 
	C675.471924,670.796143 675.962830,671.603210 672.978271,677.074036 
z"/>
<path fill="#E0DED0" opacity="1.000000" stroke="none" 
	d="
M518.002380,434.002228 
	C518.004089,430.305939 518.005859,426.609650 518.389038,422.487152 
	C520.516052,422.379242 522.261658,422.697571 524.007324,423.015869 
	C524.007202,426.034729 524.007080,429.053558 523.623657,432.600220 
	C522.494995,434.574951 521.272888,435.967316 521.099915,437.479675 
	C520.693909,441.029510 521.081848,444.677155 520.593445,448.208435 
	C520.173767,451.243103 521.381287,452.068665 524.000000,452.001221 
	C524.190002,457.445038 524.380005,462.888885 524.844604,468.997437 
	C525.064819,470.110199 525.010498,470.558258 524.763306,471.348694 
	C524.666077,474.788422 524.761719,477.885773 524.930420,481.318939 
	C524.955078,482.107727 524.906677,482.560730 524.733887,483.189148 
	C524.652344,483.900513 524.695129,484.436432 524.787048,485.352722 
	C524.767273,486.490509 524.698425,487.247894 524.291748,487.976593 
	C522.634399,487.625061 521.314758,487.302216 519.994141,486.546753 
	C519.868347,481.392761 519.947937,476.654114 519.549866,471.955933 
	C519.266113,468.606995 518.340149,465.312469 517.700806,461.993652 
	C517.531494,460.605316 517.362244,459.216980 517.288635,457.414429 
	C520.766724,454.649658 517.055359,452.108185 517.432861,449.372528 
	C517.205444,448.602722 517.126526,448.141113 517.105896,447.331238 
	C517.442444,443.953583 517.720642,440.924194 518.166992,437.226929 
	C518.224182,435.706757 518.113281,434.854492 518.002380,434.002228 
z"/>
<path fill="#DDDECC" opacity="1.000000" stroke="none" 
	d="
M517.611267,462.453003 
	C518.340149,465.312469 519.266113,468.606995 519.549866,471.955933 
	C519.947937,476.654114 519.868347,481.392761 519.994324,486.964996 
	C519.979858,489.205750 519.964172,490.595581 519.948486,491.985413 
	C519.342163,492.143951 518.735779,492.302460 518.078186,492.283875 
	C517.858521,482.375336 517.690125,472.643829 517.611267,462.453003 
z"/>
<path fill="#DDDECC" opacity="1.000000" stroke="none" 
	d="
M514.625732,492.010986 
	C513.976624,493.652283 512.948242,495.230469 511.215851,497.889130 
	C512.740845,499.073547 514.449463,500.779907 516.486633,501.874878 
	C518.472656,502.942322 519.696289,503.717651 517.301941,505.867981 
	C517.162109,505.215485 517.312561,504.426788 517.463013,503.638123 
	C517.118896,503.925903 516.774719,504.213684 516.430603,504.501465 
	C514.286682,502.319946 511.280853,500.471680 510.268188,497.852753 
	C509.439270,495.708954 510.298431,492.160889 514.625732,492.010986 
z"/>
<path fill="#DDDECC" opacity="1.000000" stroke="none" 
	d="
M510.619080,514.014282 
	C511.788574,515.427490 512.666016,516.976196 513.773560,518.765198 
	C512.403503,519.913940 510.803406,520.822388 509.234406,521.299255 
	C509.724640,519.967712 510.183807,519.067871 510.642975,518.167969 
	C510.108490,518.020447 509.574005,517.872986 509.039520,517.725464 
	C508.944885,518.905579 508.850281,520.085693 508.755676,521.265808 
	C504.397400,517.815735 508.641968,516.265381 510.619080,514.014282 
z"/>
<path fill="#DDDECC" opacity="1.000000" stroke="none" 
	d="
M516.730835,506.199890 
	C516.716125,507.451782 516.128845,508.902527 516.195068,510.322784 
	C516.362610,513.916809 514.447632,514.500610 511.204407,513.946594 
	C512.736328,511.406006 514.596008,508.895447 516.730835,506.199890 
z"/>
<path fill="#DDDECC" opacity="1.000000" stroke="none" 
	d="
M633.112061,388.621887 
	C630.829712,389.506836 628.589905,389.959198 630.403076,385.890076 
	C631.373779,386.488770 632.204773,387.402832 633.112061,388.621887 
z"/>
<path fill="#42830D" opacity="1.000000" stroke="none" 
	d="
M524.858276,483.013733 
	C524.906677,482.560730 524.955078,482.107727 525.005859,480.871155 
	C524.990906,477.060486 524.973572,474.033417 524.956177,471.006317 
	C525.010498,470.558258 525.064819,470.110199 525.035767,469.331238 
	C525.378235,453.205505 525.855469,437.411865 526.208557,421.615387 
	C526.390930,413.460693 526.352905,405.301056 526.614990,396.460815 
	C526.978210,395.221832 527.140808,394.665680 527.303467,394.109497 
	C530.074829,393.268677 532.845459,391.701630 535.617615,391.699158 
	C563.764954,391.673920 591.912476,391.903900 620.528198,392.045685 
	C621.426758,392.347260 621.857117,392.665527 622.671021,393.271301 
	C623.362244,393.733704 623.669983,393.908600 623.977661,394.083496 
	C623.977661,394.083496 623.985474,394.017181 624.024902,394.295227 
	C624.339600,394.822113 624.614746,395.070953 624.889954,395.319824 
	C624.975830,410.463135 625.038879,425.606659 625.152771,440.749756 
	C625.336792,465.203857 625.581665,489.657532 625.736633,514.111816 
	C625.771606,519.640320 623.707214,522.017212 618.527649,522.165466 
	C596.750916,522.788757 574.970642,523.286743 553.191284,523.816772 
	C552.570862,523.831909 551.946655,523.692688 550.380127,523.523499 
	C553.111633,518.997437 555.530273,514.928589 558.009888,510.897186 
	C560.797302,506.365387 563.854675,501.985565 566.413757,497.330231 
	C571.819946,487.495544 568.800110,476.284882 559.535645,470.892639 
	C550.054688,465.374390 539.303345,468.152374 533.115173,477.815613 
	C530.968323,481.168213 529.045959,484.664612 526.683105,488.598267 
	C525.829712,489.411316 525.314270,489.721436 524.836060,489.690613 
	C524.791992,488.901550 524.710754,488.453400 524.629517,488.005280 
	C524.698425,487.247894 524.767273,486.490509 524.892212,485.035645 
	C524.918335,483.896667 524.888306,483.455200 524.858276,483.013733 
M558.973938,433.768829 
	C553.493225,438.334534 549.909607,444.006836 549.650330,451.251709 
	C549.588501,452.979156 550.553345,455.724365 551.831238,456.321808 
	C554.822449,457.720306 555.486572,454.892761 556.408264,452.673370 
	C559.932800,444.186554 567.340759,438.840424 575.563660,439.089325 
	C584.687256,439.365479 590.702209,444.431030 594.474426,452.391968 
	C595.548279,454.658295 595.979309,457.575165 599.430115,456.640625 
	C603.261597,455.603027 601.848083,452.341309 601.568115,449.961517 
	C600.609131,441.810577 595.721863,436.072571 589.354492,431.506439 
	C592.836487,423.944214 593.035034,414.868591 589.921936,409.786285 
	C584.900696,401.588776 574.779358,398.780945 566.412842,403.264404 
	C557.645691,407.962555 554.060608,418.746002 558.125732,427.744232 
	C558.900757,429.459717 559.043030,431.460999 558.973938,433.768829 
M602.990540,495.345001 
	C597.240723,495.649231 591.456482,495.691284 585.764771,496.438141 
	C584.303772,496.629852 581.915527,499.263794 582.117371,500.386719 
	C582.419006,502.064240 584.512756,504.502777 586.064819,504.679565 
	C591.925842,505.347046 597.892639,505.566711 603.785889,505.272949 
	C606.862854,505.119537 611.511841,505.890808 611.752197,500.753845 
	C612.013245,495.174530 606.899841,496.633911 602.990540,495.345001 
M583.875549,476.406860 
	C580.503052,479.831757 580.877869,483.336853 585.192322,483.790924 
	C592.539978,484.564240 600.018372,484.434204 607.416626,484.108948 
	C608.942688,484.041840 610.358215,481.458374 611.824646,480.034729 
	C610.355042,478.563660 608.930725,475.882843 607.408264,475.825897 
	C599.840820,475.543121 592.247559,475.951385 583.875549,476.406860 
z"/>
<path fill="#E6DFD8" opacity="1.000000" stroke="none" 
	d="
M608.981567,389.661926 
	C583.353760,390.006042 557.695251,390.006042 532.036804,390.006042 
	C531.978088,389.307251 531.919373,388.608429 531.860596,387.909637 
	C536.177979,386.956146 540.452454,385.648499 544.821289,385.120239 
	C555.045776,383.883881 565.295959,382.617706 575.572327,382.119812 
	C586.042664,381.612549 596.556702,382.010010 607.518555,382.013977 
	C608.307251,384.450317 608.629089,386.884033 608.981567,389.661926 
M535.500244,388.526581 
	C535.500244,388.526581 535.485474,388.485748 535.500244,388.526581 
z"/>
<path fill="#488515" opacity="1.000000" stroke="none" 
	d="
M547.446655,538.372437 
	C547.459961,537.432007 547.450012,536.929565 547.505127,536.434265 
	C548.355164,528.794250 548.357178,528.794495 555.455688,530.110474 
	C557.350647,534.667419 558.994263,538.955933 560.911255,543.118530 
	C562.322205,546.182434 563.491272,549.485657 560.526917,551.765869 
	C558.771423,553.116211 555.279480,553.937012 553.460449,553.086975 
	C550.446899,551.678711 545.650513,550.812988 546.949890,545.275269 
	C547.437683,543.196472 547.303955,540.971863 547.446655,538.372437 
z"/>
<path fill="#4B851B" opacity="1.000000" stroke="none" 
	d="
M565.296875,532.868225 
	C564.636841,531.975464 564.207397,531.341980 563.487671,530.280334 
	C568.620117,530.280334 573.204468,530.007690 577.714478,530.466492 
	C578.883240,530.585510 580.362366,532.854065 580.755432,534.378479 
	C581.751343,538.240784 580.183105,541.421570 576.371643,542.622131 
	C575.001770,543.053528 572.577759,542.134888 571.477478,541.008972 
	C569.195496,538.673706 567.477356,535.787292 565.296875,532.868225 
z"/>
<path fill="#E6DFD8" opacity="1.000000" stroke="none" 
	d="
M611.088745,382.366028 
	C613.376892,382.010498 615.742371,382.007050 618.551086,382.008118 
	C618.722961,383.583618 618.699219,386.406982 618.138977,386.517792 
	C615.017639,387.135132 612.246582,386.254730 611.088745,382.366028 
z"/>
<path fill="#E6DFD8" opacity="1.000000" stroke="none" 
	d="
M524.291748,487.976593 
	C524.710754,488.453400 524.791992,488.901550 524.627075,489.677826 
	C524.380920,490.005981 523.962341,490.023682 523.962341,490.023682 
	C522.831055,490.616730 521.699707,491.209778 520.258423,491.894104 
	C519.964172,490.595581 519.979858,489.205750 519.995300,487.397644 
	C521.314758,487.302216 522.634399,487.625061 524.291748,487.976593 
z"/>
<path fill="#DDDECC" opacity="1.000000" stroke="none" 
	d="
M524.758423,499.513855 
	C524.741760,499.029846 524.922729,498.635986 525.103699,498.242096 
	C525.414795,498.507996 525.725952,498.773895 526.037048,499.039764 
	C525.676697,499.227844 525.316406,499.415924 524.758423,499.513855 
z"/>
<path fill="#DDDECC" opacity="1.000000" stroke="none" 
	d="
M524.091003,490.298645 
	C523.962341,490.023682 524.380920,490.005981 524.589905,490.018799 
	C525.314270,489.721436 525.829712,489.411316 526.625488,488.939545 
	C526.714172,490.429199 526.796265,492.489929 524.091003,490.298645 
z"/>
<path fill="#DDDECC" opacity="1.000000" stroke="none" 
	d="
M624.760620,395.080383 
	C624.614746,395.070953 624.339600,394.822113 623.991577,394.296875 
	C624.156250,394.294037 624.393799,394.567505 624.760620,395.080383 
z"/>
<path fill="#DDDECC" opacity="1.000000" stroke="none" 
	d="
M623.809448,393.887939 
	C623.669983,393.908600 623.362244,393.733704 622.938721,393.314514 
	C623.095703,393.277588 623.368469,393.484985 623.809448,393.887939 
z"/>
<path fill="#488515" opacity="1.000000" stroke="none" 
	d="
M507.152344,661.681763 
	C506.375214,669.095459 504.440155,671.786987 497.959839,673.412598 
	C498.387360,663.147034 496.863800,653.190613 498.978882,643.048523 
	C505.839417,645.359375 507.692383,649.830444 507.152344,661.681763 
z"/>
<path fill="#4B851B" opacity="1.000000" stroke="none" 
	d="
M704.574402,664.147339 
	C703.045532,668.448853 701.860107,672.566528 695.700500,673.463501 
	C695.257874,663.228821 694.514404,653.266663 696.250671,643.032715 
	C703.616455,645.523987 705.852173,651.629089 704.574402,664.147339 
z"/>
<path fill="#4B851B" opacity="1.000000" stroke="none" 
	d="
M605.714111,645.855713 
	C606.059326,658.341736 606.264954,670.424561 606.425354,682.507996 
	C606.440674,683.658813 606.540833,685.069031 605.956055,685.909607 
	C604.943115,687.365540 603.559387,689.184631 602.069702,689.465820 
	C601.102295,689.648376 599.385742,687.544739 598.542419,686.142212 
	C597.924255,685.114258 598.071350,683.561951 598.062073,682.242065 
	C597.988464,671.788086 597.936768,661.333801 597.941833,650.879578 
	C597.942566,649.403137 598.070068,647.858215 598.512451,646.463379 
	C599.826660,642.319885 602.428040,641.987122 605.714111,645.855713 
z"/>
<path fill="#4B851B" opacity="1.000000" stroke="none" 
	d="
M429.353638,652.535095 
	C430.373688,654.037537 431.462433,655.784424 431.834839,657.672546 
	C432.634216,661.725342 433.268188,665.837036 433.550568,669.953369 
	C433.673187,671.741211 433.141937,673.857239 432.155945,675.316162 
	C431.676483,676.025513 428.780548,676.174622 428.190002,675.506531 
	C427.055634,674.223145 426.094727,672.098816 426.279358,670.460571 
	C426.944672,664.557312 428.116852,658.711243 429.353638,652.535095 
z"/>
<path fill="#E6DFD8" opacity="1.000000" stroke="none" 
	d="
M524.007324,422.545593 
	C522.261658,422.697571 520.516052,422.379242 518.392090,422.025909 
	C518.134705,414.320862 518.255676,406.650818 518.380371,398.745178 
	C523.164551,399.032898 523.990112,401.277649 523.995911,404.185822 
	C524.007751,410.148987 524.004333,416.112152 524.007324,422.545593 
z"/>
<path fill="#E6DFD8" opacity="1.000000" stroke="none" 
	d="
M524.002136,451.532837 
	C521.381287,452.068665 520.173767,451.243103 520.593445,448.208435 
	C521.081848,444.677155 520.693909,441.029510 521.099915,437.479675 
	C521.272888,435.967316 522.494995,434.574951 523.623840,433.052429 
	C524.006287,439.006012 524.005310,445.035217 524.002136,451.532837 
z"/>
<path fill="#E6DFD8" opacity="1.000000" stroke="none" 
	d="
M522.160522,387.472137 
	C522.963501,387.802582 524.222534,388.758667 524.114746,388.951691 
	C522.948425,391.040649 521.567383,393.009735 520.244934,395.011536 
	C519.812927,394.842163 519.380859,394.672791 518.948853,394.503418 
	C519.959839,392.250122 520.970886,389.996796 522.160522,387.472137 
z"/>
<path fill="#E6DFD8" opacity="1.000000" stroke="none" 
	d="
M527.432495,388.650452 
	C528.135498,389.051971 528.588013,389.590088 529.040527,390.128235 
	C528.377563,390.480011 527.714600,390.831787 527.051575,391.183533 
	C527.095032,390.384705 527.138489,389.585846 527.432495,388.650452 
z"/>
<path fill="#E6DFD8" opacity="1.000000" stroke="none" 
	d="
M527.042053,394.175110 
	C527.140808,394.665680 526.978210,395.221832 526.635986,396.007263 
	C526.564453,395.571259 526.672546,394.905975 527.042053,394.175110 
z"/>
<path fill="#E6DFD8" opacity="1.000000" stroke="none" 
	d="
M518.002563,434.378418 
	C518.113281,434.854492 518.224182,435.706757 518.167542,436.786224 
	C518.000916,436.260498 518.001831,435.507568 518.002563,434.378418 
z"/>
<path fill="#DDDECC" opacity="1.000000" stroke="none" 
	d="
M524.763306,471.348694 
	C524.973572,474.033417 524.990906,477.060486 524.932800,480.535370 
	C524.761719,477.885773 524.666077,474.788422 524.763306,471.348694 
z"/>
<path fill="#DDDECC" opacity="1.000000" stroke="none" 
	d="
M524.733948,483.189148 
	C524.888306,483.455200 524.918335,483.896667 524.843140,484.655243 
	C524.695129,484.436432 524.652344,483.900513 524.733948,483.189148 
z"/>
<path fill="#E0DED0" opacity="1.000000" stroke="none" 
	d="
M508.761108,521.236023 
	C508.850281,520.085693 508.944885,518.905579 509.039520,517.725464 
	C509.574005,517.872986 510.108490,518.020447 510.642975,518.167969 
	C510.183807,519.067871 509.724640,519.967712 509.009888,521.070435 
	C508.754333,521.273254 508.766571,521.206238 508.761108,521.236023 
z"/>
<path fill="#E0DED0" opacity="1.000000" stroke="none" 
	d="
M559.225586,433.549622 
	C559.043030,431.460999 558.900757,429.459717 558.125732,427.744232 
	C554.060608,418.746002 557.645691,407.962555 566.412842,403.264404 
	C574.779358,398.780945 584.900696,401.588776 589.921936,409.786285 
	C593.035034,414.868591 592.836487,423.944214 589.354492,431.506439 
	C595.721863,436.072571 600.609131,441.810577 601.568115,449.961517 
	C601.848083,452.341309 603.261597,455.603027 599.430115,456.640625 
	C595.979309,457.575165 595.548279,454.658295 594.474426,452.391968 
	C590.702209,444.431030 584.687256,439.365479 575.563660,439.089325 
	C567.340759,438.840424 559.932800,444.186554 556.408264,452.673370 
	C555.486572,454.892761 554.822449,457.720306 551.831238,456.321808 
	C550.553345,455.724365 549.588501,452.979156 549.650330,451.251709 
	C549.909607,444.006836 553.493225,438.334534 559.225586,433.549622 
M570.690674,413.220795 
	C570.136963,413.829712 569.473816,414.370758 569.047241,415.058502 
	C566.274536,419.529480 567.378784,424.683716 571.580505,427.114258 
	C576.420349,429.914032 583.164062,427.624390 585.828735,422.276642 
	C587.348816,419.225922 584.663025,413.546753 580.260010,412.315369 
	C577.541809,411.555054 574.328491,412.565002 570.690674,413.220795 
z"/>
<path fill="#DDDDCC" opacity="1.000000" stroke="none" 
	d="
M603.431885,495.375488 
	C606.899841,496.633911 612.013245,495.174530 611.752197,500.753845 
	C611.511841,505.890808 606.862854,505.119537 603.785889,505.272949 
	C597.892639,505.566711 591.925842,505.347046 586.064819,504.679565 
	C584.512756,504.502777 582.419006,502.064240 582.117371,500.386719 
	C581.915527,499.263794 584.303772,496.629852 585.764771,496.438141 
	C591.456482,495.691284 597.240723,495.649231 603.431885,495.375488 
z"/>
<path fill="#E0DED0" opacity="1.000000" stroke="none" 
	d="
M584.269470,476.261597 
	C592.247559,475.951385 599.840820,475.543121 607.408264,475.825897 
	C608.930725,475.882843 610.355042,478.563660 611.824646,480.034729 
	C610.358215,481.458374 608.942688,484.041840 607.416626,484.108948 
	C600.018372,484.434204 592.539978,484.564240 585.192322,483.790924 
	C580.877869,483.336853 580.503052,479.831757 584.269470,476.261597 
z"/>
<path fill="#DDDECC" opacity="1.000000" stroke="none" 
	d="
M535.492859,388.506165 
	C535.485474,388.485748 535.500244,388.526581 535.492859,388.506165 
z"/>
<path fill="#488515" opacity="1.000000" stroke="none" 
	d="
M571.014038,413.000488 
	C574.328491,412.565002 577.541809,411.555054 580.260010,412.315369 
	C584.663025,413.546753 587.348816,419.225922 585.828735,422.276642 
	C583.164062,427.624390 576.420349,429.914032 571.580505,427.114258 
	C567.378784,424.683716 566.274536,419.529480 569.047241,415.058502 
	C569.473816,414.370758 570.136963,413.829712 571.014038,413.000488 
z"/>
</svg>