<svg version="1.1" id="Layer_1" xmlns="http://www.w3.org/2000/svg" xmlns:xlink="http://www.w3.org/1999/xlink" x="0px" y="0px"
	 width="100%" viewBox="0 0 503 217" enable-background="new 0 0 503 217" xml:space="preserve">
<path fill="#4C9207" opacity="1.000000" stroke="none" 
	d="
M342.000000,218.000000 
	C228.039413,218.000000 114.578812,218.000000 1.059110,218.000000 
	C1.059110,145.731232 1.059110,73.462395 1.059110,1.096781 
	C168.543884,1.096781 336.087860,1.096781 503.815918,1.096781 
	C503.815918,73.332954 503.815918,145.666443 503.815918,218.000000 
	C450.129150,218.000000 396.314575,218.000000 342.000000,218.000000 
M231.413361,76.010933 
	C231.308990,76.345345 231.204636,76.679764 230.775131,77.567635 
	C231.897293,79.541229 233.019470,81.514816 234.532684,84.176178 
	C233.424988,85.530411 231.525436,87.609871 229.945557,89.909019 
	C229.349884,90.775871 229.494202,92.151199 229.301208,93.294739 
	C230.329132,93.133469 231.707397,93.339020 232.325500,92.748665 
	C235.314743,89.893608 238.373413,87.036339 240.891266,83.780640 
	C244.451324,79.177330 247.462051,74.153366 250.897064,69.447517 
	C252.806671,66.831429 255.517349,66.073952 258.341248,68.009712 
	C261.100616,69.901222 261.575684,72.530220 259.848206,75.431831 
	C257.548248,79.294983 254.636200,82.905151 253.003494,87.026634 
	C250.840057,92.487854 248.756241,98.264755 248.286362,104.040100 
	C247.711868,111.101036 246.338959,117.452621 241.870544,123.043671 
	C241.214539,123.864502 241.314056,125.289154 241.064011,126.434425 
	C242.319702,126.112389 243.986816,126.189224 244.756195,125.395683 
	C247.366302,122.703606 249.658966,119.703735 252.071991,116.822540 
	C259.315033,122.528305 263.004913,122.155899 269.251892,115.164581 
	C269.758392,114.597733 270.463165,114.050385 271.176025,113.849319 
	C280.891663,111.108994 281.980621,109.657310 281.178864,100.264107 
	C281.461060,100.113060 281.743744,99.829643 282.025391,99.830650 
	C287.020569,99.848549 292.015808,99.951065 297.010712,99.934944 
	C305.640656,99.907097 309.207245,96.377945 309.312592,87.883270 
	C309.364227,83.720413 309.449585,79.557854 309.481384,75.394875 
	C309.630310,55.907131 309.823792,36.419426 309.874237,16.931381 
	C309.891510,10.259693 306.064087,5.380595 300.007660,5.312065 
	C281.521637,5.102892 263.026917,5.163463 244.543274,5.519555 
	C238.351868,5.638833 235.217590,9.607393 234.653305,16.339760 
	C234.722687,16.913710 234.792068,17.487659 234.655182,18.956030 
	C234.768234,22.636608 234.881287,26.317186 234.819962,30.478678 
	C234.877823,31.320107 234.935684,32.161533 234.820435,33.921700 
	C234.932495,38.622486 235.044556,43.323273 234.694336,48.708462 
	C225.346481,49.423462 216.921432,52.938908 209.017975,57.656864 
	C202.230820,61.708443 198.279190,67.909607 197.032700,75.775307 
	C195.808472,83.500206 194.439514,91.204079 193.342789,98.946747 
	C192.222900,106.852966 191.281693,114.787407 190.464584,122.730316 
	C190.348694,123.856888 191.376770,125.101143 191.875366,126.290924 
	C192.725281,125.289337 193.681122,124.355896 194.385742,123.260811 
	C194.814590,122.594345 194.900162,121.687492 195.064865,120.873428 
	C198.000763,106.362701 200.572662,91.764351 204.052032,77.385490 
	C205.198578,72.647301 207.668091,67.153000 211.327805,64.339523 
	C217.551743,59.554760 225.211716,56.645798 232.239243,52.894253 
	C234.692398,51.584671 235.011627,53.119923 235.106369,55.652603 
	C235.191971,56.124584 235.277573,56.596565 235.188553,57.858501 
	C235.283401,59.191269 235.378235,60.524040 235.344299,62.737221 
	C235.488907,64.490959 235.633499,66.244698 235.602646,68.865715 
	C235.610413,71.867027 236.197632,75.177330 231.927307,75.907784 
	C231.927307,75.907784 231.932495,75.837074 231.413361,76.010933 
M489.816559,115.629654 
	C488.824860,115.546288 487.833160,115.390205 486.841431,115.389969 
	C435.528931,115.377785 384.216431,115.376076 332.903931,115.396667 
	C331.791260,115.397118 330.678741,115.669083 329.566254,115.814377 
	C329.566254,119.337776 329.566254,122.577202 329.566254,125.891052 
	C383.448486,125.891052 436.998962,125.891052 491.003021,125.891052 
	C490.836456,122.410301 490.686737,119.282005 489.816559,115.629654 
M79.499702,127.443802 
	C109.772133,127.443802 140.044571,127.443802 170.477264,127.443802 
	C170.477264,123.575470 170.477264,120.363487 170.477264,117.072327 
	C116.510078,117.072327 62.934181,117.072327 9.239510,117.072327 
	C9.239510,120.602348 9.239510,123.820053 9.239510,127.443848 
	C32.555122,127.443848 55.527401,127.443848 79.499702,127.443802 
M155.476868,184.460052 
	C154.979401,185.528580 154.481949,186.597122 153.432236,188.851883 
	C151.314255,180.309158 149.529144,173.109100 147.744049,165.909027 
	C147.216187,165.982483 146.688339,166.055939 146.160477,166.129410 
	C145.757599,167.140594 145.062027,168.133331 144.996902,169.165817 
	C144.317108,179.945908 143.700638,190.730652 143.205521,201.520477 
	C143.167038,202.359161 144.175522,203.245895 144.697388,204.110291 
	C145.524063,203.315018 146.894241,202.627991 147.078094,201.704712 
	C147.691605,198.623764 147.880051,195.458176 148.231369,192.325027 
	C150.030136,194.435059 150.469543,196.654129 151.230743,198.756683 
	C151.858124,200.489624 152.866684,202.084579 153.706329,203.740677 
	C154.720718,202.044754 155.993591,200.446747 156.682816,198.627609 
	C157.508469,196.448349 157.835922,194.080338 158.379150,191.794067 
	C158.787842,191.821838 159.196533,191.849625 159.605225,191.877411 
	C159.793884,194.913879 159.799881,197.978683 160.264496,200.972321 
	C160.441025,202.109756 161.672394,203.083496 162.423004,204.131836 
	C163.050476,203.022339 164.251480,201.894211 164.216156,200.806229 
	C163.887009,190.674728 163.388184,180.547699 162.816818,170.426254 
	C162.735977,168.994339 162.001617,167.599319 161.569748,166.187225 
	C160.951309,166.169769 160.332855,166.152328 159.714417,166.134872 
	C158.361374,171.985870 157.008316,177.836884 155.476868,184.460052 
M295.809265,191.340744 
	C295.567535,184.714813 295.455292,178.080551 295.030273,171.466400 
	C294.812561,168.078964 292.657196,166.022476 289.236877,165.695847 
	C285.898712,165.377045 282.662567,166.641190 282.481140,170.072845 
	C281.967590,179.786407 281.802368,189.553314 282.324219,199.254868 
	C282.419434,201.025009 286.416595,203.901566 288.585724,203.877258 
	C290.798492,203.852463 293.547424,201.259109 294.990082,199.080688 
	C296.117676,197.378006 295.606445,194.590057 295.809265,191.340744 
M222.911835,199.545822 
	C223.143570,198.043091 223.375305,196.540359 223.607040,195.037643 
	C224.104630,194.996262 224.602219,194.954880 225.099808,194.913513 
	C225.689224,196.825012 226.508087,198.700745 226.812897,200.656601 
	C227.242203,203.411438 228.006821,205.118088 231.356247,203.458389 
	C231.190262,202.413818 231.095856,201.443405 230.876266,200.502213 
	C229.859329,196.143646 229.771286,192.266556 231.597916,187.650833 
	C233.337708,183.254517 232.694092,177.572128 231.935486,172.633789 
	C231.278091,168.354401 227.693069,166.159210 223.146225,166.004257 
	C220.035965,165.898239 218.675598,167.060318 218.716949,170.355316 
	C218.841873,180.310913 218.663208,190.270416 218.801285,200.225632 
	C218.818909,201.495682 220.013168,202.749405 220.662338,204.010681 
	C221.403549,202.801910 222.144775,201.593124 222.911835,199.545822 
M207.007034,173.751572 
	C207.922607,171.658051 208.838181,169.564529 210.051041,166.791245 
	C202.865555,165.932266 204.375427,174.001190 200.090668,175.356567 
	C198.152557,168.269333 197.428528,166.637573 195.167328,165.887939 
	C195.167328,178.222610 195.131836,190.280518 195.272141,202.336380 
	C195.279160,202.939392 196.904388,204.082352 197.606064,203.964172 
	C198.334030,203.841583 199.358383,202.503098 199.380264,201.673386 
	C199.481110,197.850204 199.154938,194.016312 199.237747,190.191818 
	C199.275452,188.451263 199.905960,186.723557 200.267578,184.990021 
	C200.739594,185.003342 201.211624,185.016678 201.683640,185.029999 
	C203.323685,190.222656 204.944702,195.421432 206.612503,200.605164 
	C207.345978,202.884888 208.102753,205.268677 211.666809,202.975235 
	C209.793228,196.959335 207.518021,191.031570 206.209015,184.897614 
	C205.503250,181.590393 206.451431,177.930206 207.007034,173.751572 
M348.210632,166.049210 
	C345.733612,166.144592 343.008148,165.753693 343.017181,169.611389 
	C343.042053,180.227646 342.938232,190.844681 343.059143,201.459427 
	C343.068817,202.309814 344.412598,203.145004 345.136383,203.987244 
	C345.794098,203.212341 346.829681,202.525360 347.034515,201.645096 
	C347.531158,199.510620 347.641052,197.286163 347.901306,195.142960 
	C353.204498,195.964310 348.319489,204.680573 355.753815,203.857483 
	C355.358521,201.597946 354.870667,199.842712 354.784241,198.067917 
	C354.661346,195.544800 354.633972,192.984421 354.921417,190.480789 
	C355.513031,185.327957 356.937317,180.197067 356.893158,175.066833 
	C356.853516,170.461456 354.002533,167.040771 348.210632,166.049210 
M172.963196,192.212326 
	C172.497467,195.782883 172.031754,199.353424 171.566025,202.923981 
	C172.082199,203.239365 172.598389,203.554764 173.114578,203.870163 
	C174.080963,202.705338 175.007690,201.504532 176.023422,200.384460 
	C177.405350,198.860550 178.855270,197.398270 180.276031,195.909576 
	C181.543335,197.347885 183.348495,198.592331 183.953049,200.269547 
	C184.881424,202.845139 185.495026,204.763779 188.913528,202.508316 
	C187.104416,191.766830 185.382935,180.949585 183.358414,170.189362 
	C183.066040,168.635315 181.317673,167.355209 180.243073,165.948334 
	C178.991455,167.360855 176.956619,168.610703 176.623642,170.214005 
	C175.172012,177.203644 174.215118,184.296005 172.963196,192.212326 
M313.015320,198.514236 
	C314.633881,187.752548 316.252411,176.990845 318.004669,165.340271 
	C311.340088,167.052612 313.384491,171.981277 312.523132,175.240662 
	C311.526611,179.011612 311.263458,182.976364 310.681946,186.856979 
	C310.163025,186.815781 309.644104,186.774582 309.125214,186.733383 
	C308.308868,180.994186 307.635498,175.228348 306.573975,169.534851 
	C306.314240,168.141830 304.783752,166.985718 303.837494,165.720688 
	C303.378998,167.078308 302.381958,168.505722 302.547485,169.782440 
	C303.831085,179.683624 305.221954,189.575516 306.887634,199.418182 
	C307.180450,201.148682 308.914917,202.635208 309.983582,204.234421 
	C310.973785,202.596695 311.963989,200.958954 313.015320,198.514236 
M269.555817,196.177277 
	C268.545929,197.286713 267.536072,198.396149 266.526184,199.505585 
	C265.722687,198.179993 264.273621,196.878021 264.224121,195.524826 
	C263.968781,188.547668 263.924530,181.552170 264.169861,174.575867 
	C264.221619,173.104172 265.793518,171.685928 266.664978,170.243073 
	C267.577698,171.574814 268.453583,172.933884 269.415405,174.229141 
	C270.113312,175.168945 270.924988,176.024277 271.685913,176.917267 
	C272.362701,175.797745 273.701599,174.611847 273.597198,173.570618 
	C273.222443,169.832428 272.339661,166.175537 267.423523,165.958847 
	C262.887909,165.758926 260.175812,168.156906 259.980133,173.310852 
	C259.690094,180.951050 259.608978,188.608810 259.759186,196.252808 
	C259.864777,201.625259 262.466461,204.311081 266.686798,204.204163 
	C270.745697,204.101334 273.512726,201.018753 273.676270,196.053711 
	C273.711487,194.983597 272.816132,193.882828 272.349457,192.796204 
	C271.451477,193.665817 270.553497,194.535431 269.555817,196.177277 
M330.599243,191.992264 
	C331.775208,191.161957 332.951141,190.331665 334.127106,189.501373 
	C333.234222,188.613037 332.276917,187.779221 331.466156,186.821365 
	C330.614410,185.815094 329.406128,184.763855 329.233459,183.601562 
	C328.870056,181.155273 329.167938,178.618927 329.035492,176.128006 
	C328.878113,173.166885 329.114960,170.770325 333.072021,170.861115 
	C333.843140,170.878830 334.874878,169.711441 335.338104,168.849670 
	C335.584045,168.392151 334.932220,166.811783 334.575653,166.773911 
	C332.141052,166.515381 329.545563,166.043045 327.275299,166.654510 
	C326.037018,166.988052 324.556213,169.286713 324.514801,170.737106 
	C324.229858,180.710480 324.168518,190.697098 324.416595,200.669983 
	C324.446594,201.875168 326.744202,203.974319 328.017395,203.994629 
	C330.450348,204.033447 332.902435,202.873489 335.346558,202.211090 
	C333.598877,200.747467 331.851196,199.283829 330.103485,197.820206 
	C329.676086,198.024704 329.248688,198.229202 328.821289,198.433701 
	C329.159332,196.408920 329.497406,194.384140 330.599243,191.992264 
M240.991608,175.645309 
	C240.957840,182.782227 240.902435,189.919128 240.896317,197.056061 
	C240.889999,204.432892 241.123764,204.723801 248.450668,204.107590 
	C249.683868,204.003876 250.811401,202.643967 251.987778,201.864502 
	C251.018250,201.006180 250.072708,200.118683 249.072968,199.297119 
	C247.875839,198.313339 245.504410,197.176956 245.634277,196.475739 
	C245.943604,194.805634 247.378983,193.319458 248.450562,191.824249 
	C249.116608,190.894867 250.330109,190.173828 250.560928,189.186905 
	C250.695160,188.612946 249.342438,187.722580 248.712830,186.931580 
	C247.661758,185.611038 246.144012,184.388519 245.752899,182.883102 
	C245.226364,180.856415 245.655212,178.596588 245.542191,176.443771 
	C245.381165,173.376266 245.466965,170.727371 249.733337,170.800980 
	C250.482498,170.813919 251.260040,169.181412 252.024475,168.308823 
	C251.094101,167.600098 250.239075,166.422104 249.221161,166.258698 
	C242.553299,165.188232 241.038925,166.812042 240.991608,175.645309 
z"/>
<path fill="#EEE1B1" opacity="1.000000" stroke="none" 
	d="
M235.156616,48.024059 
	C235.044556,43.323273 234.932495,38.622486 235.059845,33.232086 
	C235.197617,31.694235 235.095993,30.845999 234.994354,29.997765 
	C234.881287,26.317186 234.768234,22.636608 234.891663,18.313850 
	C235.037018,17.095675 234.945892,16.519678 234.854767,15.943682 
	C235.217590,9.607393 238.351868,5.638833 244.543274,5.519555 
	C263.026917,5.163463 281.521637,5.102892 300.007660,5.312065 
	C306.064087,5.380595 309.891510,10.259693 309.874237,16.931381 
	C309.823792,36.419426 309.630310,55.907131 309.481384,75.394875 
	C309.449585,79.557854 309.364227,83.720413 309.312592,87.883270 
	C309.207245,96.377945 305.640656,99.907097 297.010712,99.934944 
	C292.015808,99.951065 287.020569,99.848549 282.025391,99.830650 
	C281.743744,99.829643 281.461060,100.113060 281.180481,100.267090 
	C281.980621,109.657310 280.891663,111.108994 271.176025,113.849319 
	C270.463165,114.050385 269.758392,114.597733 269.251892,115.164581 
	C263.004913,122.155899 259.315033,122.528305 252.071991,116.822540 
	C249.658966,119.703735 247.366302,122.703606 244.756195,125.395683 
	C243.986816,126.189224 242.319702,126.112389 241.063995,126.434425 
	C241.314056,125.289154 241.214539,123.864502 241.870544,123.043671 
	C246.338959,117.452621 247.711868,111.101036 248.286362,104.040100 
	C248.756241,98.264755 250.840057,92.487854 253.003494,87.026634 
	C254.636200,82.905151 257.548248,79.294983 259.848206,75.431831 
	C261.575684,72.530220 261.100616,69.901222 258.341248,68.009712 
	C255.517349,66.073952 252.806671,66.831429 250.897064,69.447517 
	C247.462051,74.153366 244.451324,79.177330 240.891266,83.780640 
	C238.373413,87.036339 235.314743,89.893608 232.325500,92.748665 
	C231.707397,93.339020 230.329132,93.133469 229.301208,93.294739 
	C229.494202,92.151199 229.349884,90.775871 229.945557,89.909019 
	C231.525436,87.609871 233.424988,85.530411 234.532684,84.176178 
	C233.019470,81.514816 231.897293,79.541229 231.091553,77.106125 
	C231.602737,76.388374 231.777588,76.119194 231.932495,75.837074 
	C231.932495,75.837074 231.927307,75.907784 232.307098,75.907471 
	C237.425385,75.014458 238.062012,73.385696 235.778107,67.998436 
	C235.633499,66.244698 235.488907,64.490959 235.510101,62.006527 
	C235.571655,59.873405 235.467407,58.470978 235.363159,57.068550 
	C235.277573,56.596565 235.191971,56.124584 235.312500,54.970062 
	C235.397964,52.199699 235.277298,50.111877 235.156616,48.024059 
M240.323776,50.967422 
	C240.323776,58.233444 240.323776,65.499466 240.323776,73.744888 
	C242.619293,70.145668 244.147263,67.360542 246.047241,64.857819 
	C249.278580,60.601364 254.555023,59.124771 259.435059,60.807423 
	C264.296478,62.483654 268.022949,67.079887 267.599640,72.144333 
	C267.349304,75.139610 266.002502,78.205017 264.529175,80.900200 
	C262.022125,85.486488 259.026459,89.805710 256.333557,94.082397 
	C271.047272,94.082397 285.137512,94.159019 299.225830,94.028145 
	C302.717834,93.995705 303.312683,91.325249 303.292969,88.356842 
	C303.136200,64.730141 302.991669,41.103230 302.935211,17.476158 
	C302.926788,13.949166 301.534790,12.182838 297.968414,12.169294 
	C280.663696,12.103578 263.358948,12.039374 246.054535,11.928326 
	C242.526886,11.905688 240.848801,13.519819 240.819687,17.042440 
	C240.778503,22.027956 240.644669,27.012703 240.007690,32.488163 
	C240.052261,38.342564 240.096817,44.196960 240.323776,50.967422 
M261.760590,105.845734 
	C261.156555,104.313194 260.765533,102.640472 259.879303,101.293640 
	C259.202972,100.265800 257.842865,98.966331 256.890320,99.044685 
	C255.936966,99.123116 254.634293,100.634361 254.337677,101.745285 
	C253.837952,103.616928 254.284302,105.731949 253.841751,107.630142 
	C253.108795,110.773926 254.820374,112.482597 257.222748,113.313660 
	C258.663330,113.811996 261.758209,113.502510 261.957062,112.874557 
	C262.564911,110.954742 262.130951,108.705048 261.760590,105.845734 
M269.010406,105.823265 
	C270.578766,105.939476 272.838104,106.736046 273.552032,106.010963 
	C274.598785,104.947868 275.072876,102.681808 274.745941,101.151642 
	C274.558197,100.273064 272.360443,99.501305 270.971985,99.279297 
	C268.999969,98.963997 266.940002,99.199234 264.198914,99.199234 
	C266.081421,101.747574 267.351807,103.467308 269.010406,105.823265 
z"/>
<path fill="#F0E0B4" opacity="1.000000" stroke="none" 
	d="
M490.176819,115.891678 
	C490.686737,119.282005 490.836456,122.410301 491.003021,125.891052 
	C436.998962,125.891052 383.448486,125.891052 329.566254,125.891052 
	C329.566254,122.577202 329.566254,119.337776 329.566254,115.814377 
	C330.678741,115.669083 331.791260,115.397118 332.903931,115.396667 
	C384.216431,115.376076 435.528931,115.377785 486.841431,115.389969 
	C487.833160,115.390205 488.824860,115.546288 490.176819,115.891678 
z"/>
<path fill="#F7E4BB" opacity="1.000000" stroke="none" 
	d="
M78.999695,127.443825 
	C55.527401,127.443848 32.555122,127.443848 9.239510,127.443848 
	C9.239510,123.820053 9.239510,120.602348 9.239510,117.072327 
	C62.934181,117.072327 116.510078,117.072327 170.477264,117.072327 
	C170.477264,120.363487 170.477264,123.575470 170.477264,127.443802 
	C140.044571,127.443802 109.772133,127.443802 78.999695,127.443825 
z"/>
<path fill="#ECE0AF" opacity="1.000000" stroke="none" 
	d="
M234.925476,48.366261 
	C235.277298,50.111877 235.397964,52.199699 235.372589,54.613262 
	C235.011627,53.119923 234.692398,51.584671 232.239243,52.894253 
	C225.211716,56.645798 217.551743,59.554760 211.327805,64.339523 
	C207.668091,67.153000 205.198578,72.647301 204.052032,77.385490 
	C200.572662,91.764351 198.000763,106.362701 195.064865,120.873428 
	C194.900162,121.687492 194.814590,122.594345 194.385742,123.260811 
	C193.681122,124.355896 192.725281,125.289337 191.875366,126.290924 
	C191.376770,125.101143 190.348694,123.856888 190.464584,122.730316 
	C191.281693,114.787407 192.222900,106.852966 193.342789,98.946747 
	C194.439514,91.204079 195.808472,83.500206 197.032700,75.775307 
	C198.279190,67.909607 202.230820,61.708443 209.017975,57.656864 
	C216.921432,52.938908 225.346481,49.423462 234.925476,48.366261 
z"/>
<path fill="#EBE1AE" opacity="1.000000" stroke="none" 
	d="
M155.566071,184.073975 
	C157.008316,177.836884 158.361374,171.985870 159.714417,166.134872 
	C160.332855,166.152328 160.951309,166.169769 161.569748,166.187225 
	C162.001617,167.599319 162.735977,168.994339 162.816818,170.426254 
	C163.388184,180.547699 163.887009,190.674728 164.216156,200.806229 
	C164.251480,201.894211 163.050476,203.022339 162.423004,204.131836 
	C161.672394,203.083496 160.441025,202.109756 160.264496,200.972321 
	C159.799881,197.978683 159.793884,194.913879 159.605225,191.877411 
	C159.196533,191.849625 158.787842,191.821838 158.379150,191.794067 
	C157.835922,194.080338 157.508469,196.448349 156.682816,198.627609 
	C155.993591,200.446747 154.720718,202.044754 153.706329,203.740677 
	C152.866684,202.084579 151.858124,200.489624 151.230743,198.756683 
	C150.469543,196.654129 150.030136,194.435059 148.231369,192.325027 
	C147.880051,195.458176 147.691605,198.623764 147.078094,201.704712 
	C146.894241,202.627991 145.524063,203.315018 144.697388,204.110291 
	C144.175522,203.245895 143.167038,202.359161 143.205521,201.520477 
	C143.700638,190.730652 144.317108,179.945908 144.996902,169.165817 
	C145.062027,168.133331 145.757599,167.140594 146.160477,166.129410 
	C146.688339,166.055939 147.216187,165.982483 147.744049,165.909027 
	C149.529144,173.109100 151.314255,180.309158 153.432236,188.851883 
	C154.481949,186.597122 154.979401,185.528580 155.566071,184.073975 
z"/>
<path fill="#E6E0A9" opacity="1.000000" stroke="none" 
	d="
M295.816345,191.812531 
	C295.606445,194.590057 296.117676,197.378006 294.990082,199.080688 
	C293.547424,201.259109 290.798492,203.852463 288.585724,203.877258 
	C286.416595,203.901566 282.419434,201.025009 282.324219,199.254868 
	C281.802368,189.553314 281.967590,179.786407 282.481140,170.072845 
	C282.662567,166.641190 285.898712,165.377045 289.236877,165.695847 
	C292.657196,166.022476 294.812561,168.078964 295.030273,171.466400 
	C295.455292,178.080551 295.567535,184.714813 295.816345,191.812531 
M290.913940,173.301956 
	C290.021301,172.328049 289.128632,171.354141 288.235992,170.380234 
	C287.472382,171.725754 286.092316,173.051926 286.049316,174.420090 
	C285.835236,181.235138 285.810242,188.068390 286.109375,194.878052 
	C286.177826,196.435944 287.790314,197.926010 288.692139,199.447281 
	C289.501373,197.839645 290.955109,196.252701 291.007507,194.620743 
	C291.226318,187.808090 291.024048,180.981903 290.913940,173.301956 
z"/>
<path fill="#ECE1AF" opacity="1.000000" stroke="none" 
	d="
M222.898926,199.965088 
	C222.144775,201.593124 221.403549,202.801910 220.662338,204.010681 
	C220.013168,202.749405 218.818909,201.495682 218.801285,200.225632 
	C218.663208,190.270416 218.841873,180.310913 218.716949,170.355316 
	C218.675598,167.060318 220.035965,165.898239 223.146225,166.004257 
	C227.693069,166.159210 231.278091,168.354401 231.935486,172.633789 
	C232.694092,177.572128 233.337708,183.254517 231.597916,187.650833 
	C229.771286,192.266556 229.859329,196.143646 230.876266,200.502213 
	C231.095856,201.443405 231.190262,202.413818 231.356247,203.458389 
	C228.006821,205.118088 227.242203,203.411438 226.812897,200.656601 
	C226.508087,198.700745 225.689224,196.825012 225.099808,194.913513 
	C224.602219,194.954880 224.104630,194.996262 223.607040,195.037643 
	C223.375305,196.540359 223.143570,198.043091 222.898926,199.965088 
M223.169830,171.693130 
	C223.169830,177.408051 223.169830,183.122986 223.169830,189.278076 
	C228.256195,187.962234 228.695633,184.329193 228.813492,180.720139 
	C228.943314,176.743576 228.927002,172.661224 224.432449,170.640793 
	C224.242630,170.555466 223.865799,170.886169 223.169830,171.693130 
z"/>
<path fill="#EAE1AD" opacity="1.000000" stroke="none" 
	d="
M206.830215,174.090424 
	C206.451431,177.930206 205.503250,181.590393 206.209015,184.897614 
	C207.518021,191.031570 209.793228,196.959335 211.666809,202.975235 
	C208.102753,205.268677 207.345978,202.884888 206.612503,200.605164 
	C204.944702,195.421432 203.323685,190.222656 201.683640,185.029999 
	C201.211624,185.016678 200.739594,185.003342 200.267578,184.990021 
	C199.905960,186.723557 199.275452,188.451263 199.237747,190.191818 
	C199.154938,194.016312 199.481110,197.850204 199.380264,201.673386 
	C199.358383,202.503098 198.334030,203.841583 197.606064,203.964172 
	C196.904388,204.082352 195.279160,202.939392 195.272141,202.336380 
	C195.131836,190.280518 195.167328,178.222610 195.167328,165.887939 
	C197.428528,166.637573 198.152557,168.269333 200.090668,175.356567 
	C204.375427,174.001190 202.865555,165.932266 210.051041,166.791245 
	C208.838181,169.564529 207.922607,171.658051 206.830215,174.090424 
z"/>
<path fill="#ECE1AF" opacity="1.000000" stroke="none" 
	d="
M348.620361,166.083893 
	C354.002533,167.040771 356.853516,170.461456 356.893158,175.066833 
	C356.937317,180.197067 355.513031,185.327957 354.921417,190.480789 
	C354.633972,192.984421 354.661346,195.544800 354.784241,198.067917 
	C354.870667,199.842712 355.358521,201.597946 355.753815,203.857483 
	C348.319489,204.680573 353.204498,195.964310 347.901306,195.142960 
	C347.641052,197.286163 347.531158,199.510620 347.034515,201.645096 
	C346.829681,202.525360 345.794098,203.212341 345.136414,203.987244 
	C344.412598,203.145004 343.068817,202.309814 343.059143,201.459427 
	C342.938232,190.844681 343.042053,180.227646 343.017181,169.611389 
	C343.008148,165.753693 345.733612,166.144592 348.620361,166.083893 
M350.946869,171.912567 
	C349.249329,170.083923 347.514526,169.831818 347.351959,172.741013 
	C347.052094,178.107376 347.266235,183.502472 347.266235,189.131073 
	C353.626587,186.887955 354.977600,180.317841 350.946869,171.912567 
z"/>
<path fill="#EAE1AD" opacity="1.000000" stroke="none" 
	d="
M173.020874,191.781708 
	C174.215118,184.296005 175.172012,177.203644 176.623642,170.214005 
	C176.956619,168.610703 178.991455,167.360855 180.243073,165.948334 
	C181.317673,167.355209 183.066040,168.635315 183.358414,170.189362 
	C185.382935,180.949585 187.104416,191.766830 188.913528,202.508316 
	C185.495026,204.763779 184.881424,202.845139 183.953049,200.269547 
	C183.348495,198.592331 181.543335,197.347885 180.276031,195.909576 
	C178.855270,197.398270 177.405350,198.860550 176.023422,200.384460 
	C175.007690,201.504532 174.080963,202.705338 173.114578,203.870163 
	C172.598389,203.554764 172.082199,203.239365 171.566025,202.923981 
	C172.031754,199.353424 172.497467,195.782883 173.020874,191.781708 
M178.766113,190.590942 
	C179.988937,189.801163 182.284058,188.969879 182.255371,188.228531 
	C182.103119,184.296021 181.367386,180.386108 180.833786,176.468353 
	C180.201920,176.492432 179.570038,176.516495 178.938171,176.540558 
	C178.675171,181.010239 178.412170,185.479904 178.766113,190.590942 
z"/>
<path fill="#E9E0AB" opacity="1.000000" stroke="none" 
	d="
M312.984741,198.917725 
	C311.963989,200.958954 310.973785,202.596695 309.983582,204.234421 
	C308.914917,202.635208 307.180450,201.148682 306.887634,199.418182 
	C305.221954,189.575516 303.831085,179.683624 302.547485,169.782440 
	C302.381958,168.505722 303.378998,167.078308 303.837494,165.720673 
	C304.783752,166.985718 306.314240,168.141830 306.573975,169.534851 
	C307.635498,175.228348 308.308868,180.994186 309.125214,186.733383 
	C309.644104,186.774582 310.163025,186.815781 310.681946,186.856979 
	C311.263458,182.976364 311.526611,179.011612 312.523132,175.240662 
	C313.384491,171.981277 311.340088,167.052612 318.004669,165.340271 
	C316.252411,176.990845 314.633881,187.752548 312.984741,198.917725 
z"/>
<path fill="#EBE1AD" opacity="1.000000" stroke="none" 
	d="
M269.605652,195.791168 
	C270.553497,194.535431 271.451477,193.665817 272.349457,192.796204 
	C272.816132,193.882828 273.711487,194.983597 273.676270,196.053711 
	C273.512726,201.018753 270.745697,204.101334 266.686798,204.204163 
	C262.466461,204.311081 259.864777,201.625259 259.759186,196.252808 
	C259.608978,188.608810 259.690094,180.951050 259.980133,173.310852 
	C260.175812,168.156906 262.887909,165.758926 267.423523,165.958847 
	C272.339661,166.175537 273.222443,169.832428 273.597198,173.570618 
	C273.701599,174.611847 272.362701,175.797745 271.685913,176.917267 
	C270.924988,176.024277 270.113312,175.168945 269.415405,174.229141 
	C268.453583,172.933884 267.577698,171.574814 266.664978,170.243073 
	C265.793518,171.685928 264.221619,173.104172 264.169861,174.575867 
	C263.924530,181.552170 263.968781,188.547668 264.224121,195.524826 
	C264.273621,196.878021 265.722687,198.179993 266.526184,199.505585 
	C267.536072,198.396149 268.545929,197.286713 269.605652,195.791168 
z"/>
<path fill="#E8DFAA" opacity="1.000000" stroke="none" 
	d="
M330.217346,192.175812 
	C329.497406,194.384140 329.159332,196.408920 328.821289,198.433701 
	C329.248688,198.229202 329.676086,198.024704 330.103485,197.820206 
	C331.851196,199.283829 333.598877,200.747467 335.346558,202.211090 
	C332.902435,202.873489 330.450348,204.033447 328.017395,203.994629 
	C326.744202,203.974319 324.446594,201.875168 324.416595,200.669983 
	C324.168518,190.697098 324.229858,180.710480 324.514801,170.737106 
	C324.556213,169.286713 326.037018,166.988052 327.275299,166.654510 
	C329.545563,166.043045 332.141052,166.515381 334.575653,166.773911 
	C334.932220,166.811783 335.584045,168.392151 335.338104,168.849670 
	C334.874878,169.711441 333.843140,170.878830 333.072021,170.861115 
	C329.114960,170.770325 328.878113,173.166885 329.035492,176.128006 
	C329.167938,178.618927 328.870056,181.155273 329.233459,183.601562 
	C329.406128,184.763855 330.614410,185.815094 331.466156,186.821365 
	C332.276917,187.779221 333.234222,188.613037 334.127106,189.501373 
	C332.951141,190.331665 331.775208,191.161957 330.217346,192.175812 
z"/>
<path fill="#E9E0AC" opacity="1.000000" stroke="none" 
	d="
M240.992950,175.168640 
	C241.038925,166.812042 242.553299,165.188232 249.221161,166.258698 
	C250.239075,166.422104 251.094101,167.600098 252.024475,168.308823 
	C251.260040,169.181412 250.482498,170.813919 249.733337,170.800980 
	C245.466965,170.727371 245.381165,173.376266 245.542191,176.443771 
	C245.655212,178.596588 245.226364,180.856415 245.752899,182.883102 
	C246.144012,184.388519 247.661758,185.611038 248.712830,186.931580 
	C249.342438,187.722580 250.695160,188.612946 250.560928,189.186905 
	C250.330109,190.173828 249.116608,190.894867 248.450562,191.824249 
	C247.378983,193.319458 245.943604,194.805634 245.634277,196.475739 
	C245.504410,197.176956 247.875839,198.313339 249.072968,199.297119 
	C250.072708,200.118683 251.018250,201.006180 251.987762,201.864502 
	C250.811401,202.643967 249.683868,204.003876 248.450668,204.107590 
	C241.123764,204.723801 240.889999,204.432892 240.896317,197.056061 
	C240.902435,189.919128 240.957840,182.782227 240.992950,175.168640 
z"/>
<path fill="#ECE0AF" opacity="1.000000" stroke="none" 
	d="
M235.690369,68.432076 
	C238.062012,73.385696 237.425385,75.014458 232.278229,75.886902 
	C236.197632,75.177330 235.610413,71.867027 235.690369,68.432076 
z"/>
<path fill="#ECE0AF" opacity="1.000000" stroke="none" 
	d="
M234.907166,30.238220 
	C235.095993,30.845999 235.197617,31.694235 235.146408,32.772717 
	C234.935684,32.161533 234.877823,31.320107 234.907166,30.238220 
z"/>
<path fill="#ECE0AF" opacity="1.000000" stroke="none" 
	d="
M235.275848,57.463524 
	C235.467407,58.470978 235.571655,59.873405 235.574493,61.566322 
	C235.378235,60.524040 235.283401,59.191269 235.275848,57.463524 
z"/>
<path fill="#ECE0AF" opacity="1.000000" stroke="none" 
	d="
M234.754028,16.141720 
	C234.945892,16.519678 235.037018,17.095675 234.994797,17.866640 
	C234.792068,17.487659 234.722687,16.913710 234.754028,16.141720 
z"/>
<path fill="#ECE0AF" opacity="1.000000" stroke="none" 
	d="
M231.672928,75.924004 
	C231.777588,76.119194 231.602737,76.388374 231.254120,76.829399 
	C231.204636,76.679764 231.308990,76.345345 231.672928,75.924004 
z"/>
<path fill="#4E930B" opacity="1.000000" stroke="none" 
	d="
M240.550415,31.997780 
	C240.644669,27.012703 240.778503,22.027956 240.819687,17.042440 
	C240.848801,13.519819 242.526886,11.905688 246.054535,11.928326 
	C263.358948,12.039374 280.663696,12.103578 297.968414,12.169294 
	C301.534790,12.182838 302.926788,13.949166 302.935211,17.476158 
	C302.991669,41.103230 303.136200,64.730141 303.292969,88.356842 
	C303.312683,91.325249 302.717834,93.995705 299.225830,94.028145 
	C285.137512,94.159019 271.047272,94.082397 256.333557,94.082397 
	C259.026459,89.805710 262.022125,85.486488 264.529175,80.900200 
	C266.002502,78.205017 267.349304,75.139610 267.599640,72.144333 
	C268.022949,67.079887 264.296478,62.483654 259.435059,60.807423 
	C254.555023,59.124771 249.278580,60.601364 246.047241,64.857819 
	C244.147263,67.360542 242.619293,70.145668 240.323776,73.744888 
	C240.323776,65.499466 240.323776,58.233444 240.341217,50.113651 
	C240.422592,43.505848 240.486496,37.751812 240.550415,31.997780 
M282.910309,48.739342 
	C283.146271,49.179985 283.284302,49.732613 283.636383,50.040447 
	C284.725403,50.992569 285.895966,51.851440 287.034851,52.746513 
	C287.402802,51.413567 288.401917,49.853210 288.019135,48.790768 
	C286.918243,45.735477 285.731354,42.479877 283.680145,40.066246 
	C281.795227,37.848305 280.918213,36.390400 281.758026,33.275639 
	C283.429413,27.076603 281.152893,21.818115 276.710052,19.346273 
	C272.592651,17.055489 267.361176,17.691284 263.683319,20.929485 
	C259.435333,24.669682 258.698975,29.721989 261.462616,35.973156 
	C261.712921,36.539299 261.810028,37.173168 261.978271,37.775589 
	C259.016663,41.225170 257.036774,44.966866 255.529388,48.890095 
	C255.144470,49.891880 256.255981,51.468628 256.679962,52.781212 
	C257.719757,51.951275 259.150665,51.334934 259.738708,50.258263 
	C265.430389,39.837177 274.834351,38.902611 282.910309,48.739342 
M292.146606,64.924385 
	C287.545349,64.922752 282.936890,64.786980 278.348938,65.033279 
	C277.437378,65.082207 276.003052,66.536179 275.913452,67.450424 
	C275.832520,68.275803 277.220642,69.990021 278.032288,70.035400 
	C282.777161,70.300652 287.612427,70.687157 292.277710,70.035057 
	C295.468292,69.589096 295.482788,67.167999 292.146606,64.924385 
M294.178467,79.054855 
	C288.718262,78.694336 283.260590,78.247734 277.794495,78.086861 
	C277.142456,78.067673 275.792786,79.729889 275.919403,80.392403 
	C276.113495,81.407997 277.273407,82.975685 278.086151,83.015083 
	C282.838287,83.245453 287.618683,83.248779 292.362885,82.931030 
	C293.145081,82.878632 293.795654,80.861000 294.178467,79.054855 
z"/>
<path fill="#559614" opacity="1.000000" stroke="none" 
	d="
M261.931458,106.214706 
	C262.130951,108.705048 262.564911,110.954742 261.957062,112.874557 
	C261.758209,113.502510 258.663330,113.811996 257.222748,113.313660 
	C254.820374,112.482597 253.108795,110.773926 253.841751,107.630142 
	C254.284302,105.731949 253.837952,103.616928 254.337677,101.745285 
	C254.634293,100.634361 255.936966,99.123116 256.890320,99.044685 
	C257.842865,98.966331 259.202972,100.265800 259.879303,101.293640 
	C260.765533,102.640472 261.156555,104.313194 261.931458,106.214706 
z"/>
<path fill="#589717" opacity="1.000000" stroke="none" 
	d="
M268.816315,105.505157 
	C267.351807,103.467308 266.081421,101.747574 264.198914,99.199234 
	C266.940002,99.199234 268.999969,98.963997 270.971985,99.279297 
	C272.360443,99.501305 274.558197,100.273064 274.745941,101.151642 
	C275.072876,102.681808 274.598785,104.947868 273.552032,106.010963 
	C272.838104,106.736046 270.578766,105.939476 268.816315,105.505157 
z"/>
<path fill="#ECE0AF" opacity="1.000000" stroke="none" 
	d="
M240.279053,32.242973 
	C240.486496,37.751812 240.422592,43.505848 240.250031,49.655621 
	C240.096817,44.196960 240.052261,38.342564 240.279053,32.242973 
z"/>
<path fill="#539213" opacity="1.000000" stroke="none" 
	d="
M290.945038,173.731323 
	C291.024048,180.981903 291.226318,187.808090 291.007507,194.620743 
	C290.955109,196.252701 289.501373,197.839645 288.692139,199.447296 
	C287.790314,197.926010 286.177826,196.435944 286.109375,194.878052 
	C285.810242,188.068390 285.835236,181.235138 286.049316,174.420090 
	C286.092316,173.051926 287.472382,171.725754 288.235992,170.380234 
	C289.128632,171.354141 290.021301,172.328049 290.945038,173.731323 
z"/>
<path fill="#569515" opacity="1.000000" stroke="none" 
	d="
M223.372955,171.358093 
	C223.865799,170.886169 224.242630,170.555466 224.432449,170.640793 
	C228.927002,172.661224 228.943314,176.743576 228.813492,180.720139 
	C228.695633,184.329193 228.256195,187.962234 223.169830,189.278076 
	C223.169830,183.122986 223.169830,177.408051 223.372955,171.358093 
z"/>
<path fill="#589717" opacity="1.000000" stroke="none" 
	d="
M351.174194,172.221466 
	C354.977600,180.317841 353.626587,186.887955 347.266235,189.131073 
	C347.266235,183.502472 347.052094,178.107376 347.351959,172.741013 
	C347.514526,169.831818 349.249329,170.083923 351.174194,172.221466 
z"/>
<path fill="#5C971D" opacity="1.000000" stroke="none" 
	d="
M178.457642,190.270264 
	C178.412170,185.479904 178.675171,181.010239 178.938171,176.540558 
	C179.570038,176.516495 180.201920,176.492432 180.833786,176.468353 
	C181.367386,180.386108 182.103119,184.296021 182.255371,188.228531 
	C182.284058,188.969879 179.988937,189.801163 178.457642,190.270264 
z"/>
<path fill="#EEE1B1" opacity="1.000000" stroke="none" 
	d="
M282.721130,48.417175 
	C274.834351,38.902611 265.430389,39.837177 259.738708,50.258263 
	C259.150665,51.334934 257.719757,51.951275 256.679962,52.781212 
	C256.255981,51.468628 255.144470,49.891880 255.529388,48.890095 
	C257.036774,44.966866 259.016663,41.225170 261.978271,37.775589 
	C261.810028,37.173168 261.712921,36.539299 261.462616,35.973156 
	C258.698975,29.721989 259.435333,24.669682 263.683319,20.929485 
	C267.361176,17.691284 272.592651,17.055489 276.710052,19.346273 
	C281.152893,21.818115 283.429413,27.076603 281.758026,33.275639 
	C280.918213,36.390400 281.795227,37.848305 283.680145,40.066246 
	C285.731354,42.479877 286.918243,45.735477 288.019135,48.790768 
	C288.401917,49.853210 287.402802,51.413567 287.034851,52.746513 
	C285.895966,51.851440 284.725403,50.992569 283.636383,50.040447 
	C283.284302,49.732613 283.146271,49.179985 282.721130,48.417175 
M278.646484,29.616816 
	C277.848236,28.376028 277.281616,26.862556 276.205719,25.948603 
	C273.591522,23.727913 270.353729,23.362034 268.366119,26.271965 
	C267.264496,27.884747 267.143402,32.261139 267.989502,32.704868 
	C270.232300,33.881088 273.269257,33.931595 275.931488,33.713211 
	C276.890869,33.634518 277.682709,31.512495 278.646484,29.616816 
z"/>
<path fill="#E9E0AB" opacity="1.000000" stroke="none" 
	d="
M292.524719,65.038467 
	C295.482788,67.167999 295.468292,69.589096 292.277710,70.035057 
	C287.612427,70.687157 282.777161,70.300652 278.032288,70.035400 
	C277.220642,69.990021 275.832520,68.275803 275.913452,67.450424 
	C276.003052,66.536179 277.437378,65.082207 278.348938,65.033279 
	C282.936890,64.786980 287.545349,64.922752 292.524719,65.038467 
z"/>
<path fill="#EAE1AD" opacity="1.000000" stroke="none" 
	d="
M294.342773,79.403229 
	C293.795654,80.861000 293.145081,82.878632 292.362885,82.931030 
	C287.618683,83.248779 282.838287,83.245453 278.086151,83.015083 
	C277.273407,82.975685 276.113495,81.407997 275.919403,80.392403 
	C275.792786,79.729889 277.142456,78.067673 277.794495,78.086861 
	C283.260590,78.247734 288.718262,78.694336 294.342773,79.403229 
z"/>
<path fill="#549512" opacity="1.000000" stroke="none" 
	d="
M278.598755,29.969879 
	C277.682709,31.512495 276.890869,33.634518 275.931488,33.713211 
	C273.269257,33.931595 270.232300,33.881088 267.989502,32.704868 
	C267.143402,32.261139 267.264496,27.884747 268.366119,26.271965 
	C270.353729,23.362034 273.591522,23.727913 276.205719,25.948603 
	C277.281616,26.862556 277.848236,28.376028 278.598755,29.969879 
z"/>
</svg>