<svg version="1.1" id="Layer_1" xmlns="http://www.w3.org/2000/svg" xmlns:xlink="http://www.w3.org/1999/xlink" x="0px" y="0px"
	 width="100%" viewBox="0 0 519 300" enable-background="new 0 0 519 300" xml:space="preserve">
<path fill="#468A08" opacity="1.000000" stroke="none" 
	d="
M307.000000,301.000000 
	C204.666672,301.000000 102.833336,301.000000 1.000000,301.000000 
	C1.000000,201.000000 1.000000,101.000000 1.000000,1.000000 
	C174.000000,1.000000 347.000000,1.000000 520.000000,1.000000 
	C520.000000,101.000000 520.000000,201.000000 520.000000,301.000000 
	C449.166656,301.000000 378.333344,301.000000 307.000000,301.000000 
M237.186951,108.857613 
	C237.282883,110.193550 237.378815,111.529488 237.339005,113.743759 
	C237.485489,115.494583 237.631973,117.245399 237.601013,119.891403 
	C237.433563,122.000969 237.266113,124.110542 236.365356,126.069389 
	C235.115448,127.072571 232.650757,128.580292 232.822235,128.993149 
	C233.641251,130.965164 235.175507,132.640106 236.782196,134.875275 
	C235.413498,136.545898 233.508957,138.626221 231.926483,140.927994 
	C231.332596,141.791824 231.487091,143.170151 231.300400,144.313934 
	C232.329010,144.147095 233.733765,144.351013 234.324066,143.752136 
	C237.690155,140.337128 241.081940,136.903687 244.040482,133.142593 
	C247.226105,129.092773 249.840698,124.598854 252.903381,120.445381 
	C254.825348,117.838898 257.525421,117.070137 260.349121,119.016212 
	C263.104523,120.915207 263.568695,123.536774 261.838501,126.442375 
	C260.389862,128.875137 258.913788,131.292404 257.404968,133.688263 
	C253.652298,139.647232 249.937378,145.711548 250.129639,153.040375 
	C250.338394,160.997910 248.879898,168.247833 243.518509,174.440155 
	C242.957474,175.088165 243.199432,176.431427 243.068848,177.452118 
	C244.199417,177.232697 245.738083,177.404678 246.389420,176.725601 
	C249.100632,173.898880 251.544586,170.815826 253.362808,168.677872 
	C257.186279,169.742950 261.178131,172.303848 263.764587,171.287643 
	C270.038330,168.822708 276.110901,165.244888 281.322357,160.967560 
	C283.458344,159.214417 283.165741,154.502335 284.028076,150.928543 
	C289.349670,150.928543 295.170868,151.081390 300.980469,150.887512 
	C307.380646,150.673950 311.073090,146.824310 311.284180,140.411331 
	C311.437561,135.750534 311.446991,131.084412 311.482697,126.420372 
	C311.632019,106.927246 311.825317,87.434166 311.875244,67.940735 
	C311.892303,61.255928 308.076996,56.382095 302.018402,56.312469 
	C283.527222,56.099972 265.027283,56.159477 246.538376,56.512836 
	C240.353271,56.631046 237.208633,60.613388 236.647842,67.338295 
	C236.718658,67.912750 236.789474,68.487206 236.649323,69.941177 
	C236.742218,72.951790 236.835114,75.962402 236.800079,79.716499 
	C236.861542,82.479820 236.923004,85.243141 236.830734,88.917038 
	C236.922684,92.619629 237.014633,96.322212 236.227554,100.104607 
	C224.548248,100.902527 214.069489,105.032555 205.770050,113.158348 
	C202.546570,116.314377 200.157196,121.289124 199.363022,125.784340 
	C196.616013,141.332993 194.688416,157.028610 192.612000,172.689911 
	C192.419128,174.144608 193.381287,175.752457 193.807159,177.289200 
	C194.766464,175.995575 196.292145,174.822769 196.597794,173.389725 
	C199.788635,158.429352 202.825119,143.435501 205.812012,128.432510 
	C206.959137,122.670624 209.067566,117.258896 214.269638,114.314278 
	C221.611969,110.158188 229.386856,106.766266 236.983734,103.559975 
	C237.052505,103.716301 237.121292,103.872627 237.044312,104.665459 
	C237.104156,105.092613 237.164001,105.519775 237.096390,106.657120 
	C237.185257,107.126793 237.274109,107.596458 237.186951,108.857613 
M397.500244,166.376114 
	C375.564026,166.376114 353.627808,166.376114 331.488190,166.376114 
	C331.488190,170.238235 331.488190,173.487091 331.488190,176.982666 
	C385.319305,176.982666 438.896667,176.982666 492.612854,176.982666 
	C492.612854,173.473083 492.612854,170.221039 492.612854,166.376144 
	C461.047119,166.376144 429.773682,166.376144 397.500244,166.376114 
M158.495667,178.446228 
	C163.105667,178.446228 167.715668,178.446228 172.500702,178.446228 
	C172.500702,174.608078 172.500702,171.396881 172.500702,168.147766 
	C118.481407,168.147766 64.834709,168.147766 11.133709,168.147766 
	C11.133709,171.633179 11.133709,174.728333 11.133709,178.446320 
	C60.081741,178.446320 108.789146,178.446320 158.495667,178.446228 
M165.614777,235.563141 
	C165.188477,229.468964 164.762161,223.374771 164.335861,217.280594 
	C163.530365,217.222107 162.724884,217.163635 161.919403,217.105148 
	C160.091461,224.230865 158.263535,231.356567 156.435608,238.482285 
	C155.992004,238.457993 155.548401,238.433685 155.104797,238.409393 
	C153.325043,231.254044 151.545288,224.098709 149.765533,216.943359 
	C149.210205,216.991592 148.654877,217.039825 148.099548,217.088058 
	C147.701263,218.234924 147.021896,219.364136 146.948547,220.531448 
	C146.280441,231.161865 145.669617,241.796829 145.213730,252.437836 
	C145.176086,253.316437 146.398392,254.249039 147.035294,255.156540 
	C147.762482,254.254501 148.943909,253.437439 149.131577,252.434448 
	C149.690536,249.446762 149.859192,246.386047 150.180344,243.353867 
	C152.002960,245.805267 152.592743,248.460983 153.530807,250.987396 
	C154.037994,252.353439 155.139954,253.498642 155.973602,254.743469 
	C156.714539,253.593857 157.718521,252.533035 158.142624,251.276489 
	C159.075912,248.511398 159.716309,245.647446 160.476257,242.823853 
	C160.886368,242.889786 161.296478,242.955734 161.706604,243.021667 
	C161.864838,246.116272 161.868607,249.231033 162.268341,252.294128 
	C162.401398,253.313675 163.549667,254.200729 164.233856,255.148376 
	C164.930923,254.101028 166.227478,253.051483 166.223663,252.006699 
	C166.204788,246.851089 165.841537,241.696747 165.614777,235.563141 
M297.351654,249.462250 
	C297.305573,240.838760 297.329254,232.214081 297.182556,223.592300 
	C297.114136,219.572220 295.091278,216.906494 290.873199,216.671799 
	C286.297424,216.417221 284.060333,219.218124 283.887848,223.378571 
	C283.551117,231.499634 283.400604,239.639496 283.552216,247.764496 
	C283.616211,251.192047 285.039825,254.394089 289.037201,255.122787 
	C293.064911,255.856995 295.766174,254.068787 297.351654,249.462250 
M220.690811,237.497192 
	C220.690811,243.234238 220.690811,248.971283 220.690811,255.035553 
	C228.066208,254.890594 222.408676,247.509186 226.597595,246.156830 
	C229.788254,250.969925 232.628387,254.376251 233.634445,254.037674 
	C231.748657,248.517258 231.331177,243.301056 233.995331,237.434708 
	C235.714355,233.649536 234.834946,228.309830 234.037460,223.860840 
	C233.228592,219.348404 229.675934,217.067566 224.901093,217.006073 
	C222.043396,216.969269 220.648224,217.979919 220.723358,221.073395 
	C220.848129,226.212097 220.681015,231.357880 220.690811,237.497192 
M197.076782,251.174225 
	C197.867325,252.497513 198.657867,253.820801 199.448410,255.144089 
	C200.082367,253.724106 201.070084,252.350967 201.265839,250.872940 
	C201.546585,248.753372 201.143036,246.553192 201.225723,244.394867 
	C201.332291,241.612701 201.630630,238.837875 201.846375,236.059891 
	C202.440353,236.025803 203.034332,235.991714 203.628311,235.957626 
	C205.260605,241.100113 206.866928,246.251038 208.537430,251.381088 
	C209.245621,253.555908 209.794800,256.146851 213.706314,254.166229 
	C211.840210,248.170044 210.510406,241.952759 207.982880,236.268021 
	C204.825211,229.166092 210.536194,224.108917 211.613739,217.535034 
	C204.926788,217.176865 206.362595,224.760101 202.194656,226.325577 
	C199.481186,217.554626 199.481186,217.554626 197.065277,217.359283 
	C197.065277,228.347031 197.065277,239.292938 197.076782,251.174225 
M175.182205,241.495026 
	C174.636017,245.685165 174.089828,249.875320 173.543640,254.065475 
	C174.029709,254.330978 174.515762,254.596481 175.001816,254.861984 
	C175.969879,253.925522 177.502777,253.135590 177.791443,252.022888 
	C178.444717,249.504745 178.694489,247.039001 182.090302,246.907776 
	C185.804581,246.764236 185.372375,249.821991 186.325821,251.981934 
	C186.795273,253.045441 188.206085,253.693436 189.190933,254.529449 
	C189.630096,253.475449 190.578705,252.342773 190.429977,251.379532 
	C188.858215,241.199356 187.220795,231.025375 185.292908,220.908478 
	C185.011002,219.429169 183.115723,218.257294 181.966980,216.943192 
	C180.829056,218.281769 178.986710,219.474930 178.675201,220.984100 
	C177.332642,227.487854 176.439041,234.084320 175.182205,241.495026 
M344.859009,235.501419 
	C344.892426,241.162857 344.856445,246.826477 345.034088,252.483383 
	C345.060791,253.333984 346.086029,254.153229 346.649384,254.986954 
	C347.471863,254.210785 348.767181,253.563416 349.020813,252.632278 
	C349.592499,250.533737 349.648529,248.294708 349.918457,246.079590 
	C355.013611,247.139603 350.569824,255.534775 358.071472,254.864502 
	C356.156647,248.538254 355.470367,243.095764 358.514252,237.163025 
	C360.199890,233.877640 359.357300,228.976837 358.778503,224.929428 
	C358.074158,220.004044 354.307800,217.208405 349.825287,217.027023 
	C346.612854,216.897018 344.795502,217.863144 344.944916,221.518478 
	C345.121460,225.839127 344.934479,230.174622 344.859009,235.501419 
M309.800018,254.238495 
	C313.500488,256.857239 314.376312,254.384552 314.851196,251.382538 
	C315.860931,244.999405 316.861633,238.614090 317.771606,232.216248 
	C318.483337,227.212479 319.052856,222.188492 319.783142,216.400284 
	C313.344269,218.020065 315.381348,222.940308 314.527740,226.187286 
	C313.565247,229.848328 313.353180,233.706680 312.814758,237.479202 
	C312.253754,237.472519 311.692749,237.465836 311.131775,237.459152 
	C310.274475,231.512512 309.523285,225.546844 308.464172,219.636353 
	C308.268585,218.544769 306.828186,217.676239 305.962341,216.704773 
	C305.427887,217.852188 304.304169,219.081009 304.449677,220.134521 
	C305.992371,231.302917 307.736877,242.443420 309.800018,254.238495 
M261.585968,242.298965 
	C261.635956,244.127335 261.600159,245.962921 261.753479,247.782578 
	C262.091461,251.793625 263.545898,255.014160 268.198944,255.177139 
	C272.665405,255.333603 274.945648,252.662369 275.406158,248.533524 
	C275.575867,247.011719 274.748260,245.378693 274.375580,243.796402 
	C273.421570,244.981140 272.479492,246.175751 271.509979,247.347687 
	C270.637817,248.401947 269.735626,249.431366 268.846680,250.471741 
	C267.947937,249.266785 266.374084,248.115906 266.272461,246.847092 
	C265.915009,242.384232 266.023987,237.880798 266.033234,233.392914 
	C266.039764,230.238586 265.975372,227.060120 266.362671,223.944641 
	C266.485291,222.958435 267.963867,222.140808 268.821899,221.246048 
	C269.613800,222.134140 270.504242,222.956680 271.156647,223.937561 
	C271.490723,224.439850 271.192108,225.382248 271.545441,225.848145 
	C272.154510,226.651245 273.049469,227.237549 273.824432,227.914841 
	C274.457581,227.087540 275.509308,226.326385 275.652313,225.421631 
	C276.313721,221.235779 273.504974,217.331421 269.815521,216.977539 
	C265.270752,216.541626 262.317871,218.959167 262.015350,223.907516 
	C261.660675,229.709122 261.696716,235.534607 261.585968,242.298965 
M334.663910,255.229980 
	C335.560760,254.334534 336.457611,253.439087 337.354462,252.543655 
	C335.463470,251.359909 333.572479,250.176147 330.586945,248.307205 
	C331.311157,246.886520 332.187683,244.782547 333.408752,242.902298 
	C334.274323,241.569458 335.605316,240.538895 336.728607,239.373428 
	C336.528076,238.954086 336.327576,238.534744 336.127075,238.115402 
	C331.546356,238.545303 330.781342,236.042480 331.071228,232.563965 
	C331.222443,230.749191 331.163391,228.903320 331.039948,227.082306 
	C330.836487,224.080673 331.210846,221.769669 335.116791,221.863098 
	C335.876465,221.881271 337.203735,220.633316 337.294647,219.855515 
	C337.386414,219.070297 336.451843,217.669922 335.647644,217.355377 
	C330.357239,215.286209 326.388489,218.005569 326.312347,223.697311 
	C326.205658,231.671951 326.214630,239.648117 326.174561,247.623642 
	C326.136505,255.197662 326.136749,255.197662 334.663910,255.229980 
M244.546158,218.032867 
	C244.027908,219.876297 243.105865,221.709961 243.061096,223.564804 
	C242.864563,231.709381 242.901245,239.860046 242.892853,248.008530 
	C242.885132,255.513870 243.366486,255.997665 250.898880,255.113037 
	C252.001541,254.983536 252.964508,253.664627 253.992111,252.896057 
	C253.031845,252.025909 252.103271,251.117203 251.103165,250.295563 
	C249.904099,249.310486 247.508575,248.190628 247.636047,247.498322 
	C247.944397,245.823654 249.366943,244.327423 250.439102,242.829956 
	C251.104736,241.900314 252.333206,241.191971 252.570450,240.206512 
	C252.709457,239.629120 251.429459,238.075012 250.733215,238.039841 
	C247.437744,237.873352 247.671310,235.621674 247.634995,233.439774 
	C247.601791,231.444641 247.654922,229.445480 247.547302,227.454742 
	C247.381592,224.389542 247.446136,221.718231 251.737488,221.806549 
	C252.485382,221.821945 253.267273,220.185913 254.033463,219.312607 
	C253.103104,218.600754 252.226959,217.391525 251.230804,217.282928 
	C249.290237,217.071304 247.282440,217.476166 244.546158,218.032867 
z"/>
<path fill="#E6DDBE" opacity="1.000000" stroke="none" 
	d="
M236.853073,66.943260 
	C237.208633,60.613388 240.353271,56.631046 246.538376,56.512836 
	C265.027283,56.159477 283.527222,56.099972 302.018402,56.312469 
	C308.076996,56.382095 311.892303,61.255928 311.875244,67.940735 
	C311.825317,87.434166 311.632019,106.927246 311.482697,126.420372 
	C311.446991,131.084412 311.437561,135.750534 311.284180,140.411331 
	C311.073090,146.824310 307.380646,150.673950 300.980469,150.887512 
	C295.170868,151.081390 289.349670,150.928543 284.028076,150.928543 
	C283.165741,154.502335 283.458344,159.214417 281.322357,160.967560 
	C276.110901,165.244888 270.038330,168.822708 263.764587,171.287643 
	C261.178131,172.303848 257.186279,169.742950 253.362808,168.677872 
	C251.544586,170.815826 249.100632,173.898880 246.389420,176.725601 
	C245.738083,177.404678 244.199417,177.232697 243.068848,177.452118 
	C243.199432,176.431427 242.957474,175.088165 243.518509,174.440155 
	C248.879898,168.247833 250.338394,160.997910 250.129639,153.040375 
	C249.937378,145.711548 253.652298,139.647232 257.404968,133.688263 
	C258.913788,131.292404 260.389862,128.875137 261.838501,126.442375 
	C263.568695,123.536774 263.104523,120.915207 260.349121,119.016212 
	C257.525421,117.070137 254.825348,117.838898 252.903381,120.445381 
	C249.840698,124.598854 247.226105,129.092773 244.040482,133.142593 
	C241.081940,136.903687 237.690155,140.337128 234.324066,143.752136 
	C233.733765,144.351013 232.329010,144.147095 231.300385,144.313934 
	C231.487091,143.170151 231.332596,141.791824 231.926483,140.927994 
	C233.508957,138.626221 235.413498,136.545898 236.782196,134.875275 
	C235.175507,132.640106 233.641251,130.965164 232.822235,128.993149 
	C232.650757,128.580292 235.115448,127.072571 237.003540,126.172981 
	C237.687317,123.849792 237.732895,121.423004 237.778442,118.996223 
	C237.631973,117.245399 237.485489,115.494583 237.511185,113.013626 
	C237.576569,110.877708 237.469772,109.471916 237.362961,108.066132 
	C237.274109,107.596458 237.185257,107.126793 237.264221,106.121254 
	C237.351395,105.066574 237.270737,104.547768 237.190063,104.028954 
	C237.121292,103.872627 237.052505,103.716301 237.108490,103.085022 
	C237.191010,101.748314 237.148788,100.886559 237.106567,100.024803 
	C237.014633,96.322212 236.922684,92.619629 237.102325,88.123779 
	C237.225266,84.544685 237.076630,81.758850 236.927979,78.973015 
	C236.835114,75.962402 236.742218,72.951790 236.897125,69.308670 
	C237.047638,68.098526 236.950363,67.520889 236.853073,66.943260 
M242.191483,103.680931 
	C242.122803,104.121391 242.054123,104.561844 241.668335,105.457031 
	C241.772400,106.303589 241.876465,107.150139 242.150177,108.893944 
	C242.032669,111.935783 241.915161,114.977623 241.678558,118.249420 
	C241.606430,118.511368 241.649857,118.755333 241.958069,119.705238 
	C241.958069,121.077667 241.958069,122.450096 241.958069,123.822525 
	C244.381058,121.495918 245.824066,118.909584 247.530838,116.510910 
	C251.364517,111.123047 257.891937,109.618355 263.418549,112.702148 
	C269.133453,115.891006 271.324951,122.560921 268.421417,128.630783 
	C267.134460,131.321228 265.388336,133.794113 263.822662,136.348633 
	C261.982727,139.350693 260.112396,142.334137 258.374847,145.132965 
	C272.896240,145.132965 286.702362,145.152008 300.508423,145.120117 
	C304.154785,145.111679 305.318451,142.960114 305.293945,139.567764 
	C305.121887,115.741745 304.999084,91.915283 304.921570,68.088776 
	C304.910583,64.709755 303.318573,63.193085 300.073792,63.177761 
	C282.745117,63.095936 265.416229,63.049053 248.087921,62.922943 
	C244.181396,62.894508 242.780029,64.874367 242.801819,68.518562 
	C242.824661,72.343437 242.648499,76.169502 242.000076,80.471748 
	C242.019699,87.987701 242.039322,95.503647 242.191483,103.680931 
M255.918335,158.331451 
	C254.849548,161.878998 257.050354,163.683029 259.807617,164.613525 
	C261.075836,165.041519 264.010559,164.334915 264.092163,163.814209 
	C264.436920,161.613449 264.021912,159.286407 263.812836,157.012161 
	C263.770325,156.549728 263.487701,156.062012 263.195099,155.677887 
	C261.692200,153.704941 262.742279,148.904602 258.688843,150.170822 
	C257.178406,150.642654 256.850555,154.900116 255.918335,158.331451 
M271.012299,156.823608 
	C272.580811,156.939285 274.842102,157.735214 275.554199,157.009979 
	C276.602020,155.942856 277.076874,153.677628 276.751801,152.144073 
	C276.566406,151.269501 274.360840,150.501907 272.970398,150.281052 
	C270.995483,149.967300 268.933594,150.201355 266.201752,150.201355 
	C268.079224,152.742676 269.351501,154.464783 271.012299,156.823608 
M241.926208,130.733154 
	C241.998184,130.736237 242.070145,130.739319 241.926208,130.733154 
z"/>
<path fill="#E8DDC2" opacity="1.000000" stroke="none" 
	d="
M398.000244,166.376129 
	C429.773682,166.376144 461.047119,166.376144 492.612854,166.376144 
	C492.612854,170.221039 492.612854,173.473083 492.612854,176.982666 
	C438.896667,176.982666 385.319305,176.982666 331.488190,176.982666 
	C331.488190,173.487091 331.488190,170.238235 331.488190,166.376114 
	C353.627808,166.376114 375.564026,166.376114 398.000244,166.376129 
z"/>
<path fill="#EFE1C9" opacity="1.000000" stroke="none" 
	d="
M157.996109,178.446274 
	C108.789146,178.446320 60.081741,178.446320 11.133709,178.446320 
	C11.133709,174.728333 11.133709,171.633179 11.133709,168.147766 
	C64.834709,168.147766 118.481407,168.147766 172.500702,168.147766 
	C172.500702,171.396881 172.500702,174.608078 172.500702,178.446228 
	C167.715668,178.446228 163.105667,178.446228 157.996109,178.446274 
z"/>
<path fill="#E5DDBD" opacity="1.000000" stroke="none" 
	d="
M236.667053,100.064705 
	C237.148788,100.886559 237.191010,101.748314 237.105042,102.828857 
	C229.386856,106.766266 221.611969,110.158188 214.269638,114.314278 
	C209.067566,117.258896 206.959137,122.670624 205.812012,128.432510 
	C202.825119,143.435501 199.788635,158.429352 196.597794,173.389725 
	C196.292145,174.822769 194.766464,175.995575 193.807159,177.289185 
	C193.381287,175.752457 192.419128,174.144608 192.612000,172.689911 
	C194.688416,157.028610 196.616013,141.332993 199.363022,125.784340 
	C200.157196,121.289124 202.546570,116.314377 205.770050,113.158348 
	C214.069489,105.032555 224.548248,100.902527 236.667053,100.064705 
z"/>
<path fill="#E3DDBB" opacity="1.000000" stroke="none" 
	d="
M165.607285,236.052551 
	C165.841537,241.696747 166.204788,246.851089 166.223663,252.006699 
	C166.227478,253.051483 164.930923,254.101028 164.233856,255.148376 
	C163.549667,254.200729 162.401398,253.313675 162.268341,252.294128 
	C161.868607,249.231033 161.864838,246.116272 161.706604,243.021667 
	C161.296478,242.955734 160.886368,242.889786 160.476257,242.823853 
	C159.716309,245.647446 159.075912,248.511398 158.142624,251.276489 
	C157.718521,252.533035 156.714539,253.593857 155.973602,254.743469 
	C155.139954,253.498642 154.037994,252.353439 153.530807,250.987396 
	C152.592743,248.460983 152.002960,245.805267 150.180344,243.353867 
	C149.859192,246.386047 149.690536,249.446762 149.131577,252.434448 
	C148.943909,253.437439 147.762482,254.254501 147.035294,255.156540 
	C146.398392,254.249039 145.176086,253.316437 145.213730,252.437836 
	C145.669617,241.796829 146.280441,231.161865 146.948547,220.531448 
	C147.021896,219.364136 147.701263,218.234924 148.099548,217.088058 
	C148.654877,217.039825 149.210205,216.991592 149.765533,216.943359 
	C151.545288,224.098709 153.325043,231.254044 155.104797,238.409393 
	C155.548401,238.433685 155.992004,238.457993 156.435608,238.482285 
	C158.263535,231.356567 160.091461,224.230865 161.919403,217.105148 
	C162.724884,217.163635 163.530365,217.222107 164.335861,217.280594 
	C164.762161,223.374771 165.188477,229.468964 165.607285,236.052551 
z"/>
<path fill="#DFDCB6" opacity="1.000000" stroke="none" 
	d="
M297.257874,249.859222 
	C295.766174,254.068787 293.064911,255.856995 289.037201,255.122787 
	C285.039825,254.394089 283.616211,251.192047 283.552216,247.764496 
	C283.400604,239.639496 283.551117,231.499634 283.887848,223.378571 
	C284.060333,219.218124 286.297424,216.417221 290.873199,216.671799 
	C295.091278,216.906494 297.114136,219.572220 297.182556,223.592300 
	C297.329254,232.214081 297.305573,240.838760 297.257874,249.859222 
M289.100739,222.008057 
	C288.801758,230.743347 288.443878,239.477737 288.308563,248.215561 
	C288.296967,248.965851 289.762329,249.738998 290.541595,250.501526 
	C291.355713,249.592865 292.859528,248.696335 292.875763,247.773636 
	C293.016327,239.784531 292.976196,231.787781 292.707733,223.802795 
	C292.680908,223.004898 290.782104,222.269943 289.100739,222.008057 
z"/>
<path fill="#E4DEBC" opacity="1.000000" stroke="none" 
	d="
M220.663818,236.998932 
	C220.681015,231.357880 220.848129,226.212097 220.723358,221.073395 
	C220.648224,217.979919 222.043396,216.969269 224.901093,217.006073 
	C229.675934,217.067566 233.228592,219.348404 234.037460,223.860840 
	C234.834946,228.309830 235.714355,233.649536 233.995331,237.434708 
	C231.331177,243.301056 231.748657,248.517258 233.634445,254.037674 
	C232.628387,254.376251 229.788254,250.969925 226.597595,246.156830 
	C222.408676,247.509186 228.066208,254.890594 220.690811,255.035553 
	C220.690811,248.971283 220.690811,243.234238 220.663818,236.998932 
M229.784119,224.843231 
	C228.689255,223.667007 227.594391,222.490799 226.499512,221.314575 
	C226.131973,221.503525 225.764450,221.692459 225.396912,221.881393 
	C225.396912,227.905212 225.396912,233.929031 225.396912,240.192017 
	C230.755508,237.768219 231.941025,233.709045 229.784119,224.843231 
z"/>
<path fill="#E2DDBA" opacity="1.000000" stroke="none" 
	d="
M197.071030,250.706528 
	C197.065277,239.292938 197.065277,228.347031 197.065277,217.359283 
	C199.481186,217.554626 199.481186,217.554626 202.194656,226.325577 
	C206.362595,224.760101 204.926788,217.176865 211.613739,217.535034 
	C210.536194,224.108917 204.825211,229.166092 207.982880,236.268021 
	C210.510406,241.952759 211.840210,248.170044 213.706314,254.166229 
	C209.794800,256.146851 209.245621,253.555908 208.537430,251.381088 
	C206.866928,246.251038 205.260605,241.100113 203.628311,235.957626 
	C203.034332,235.991714 202.440353,236.025803 201.846375,236.059891 
	C201.630630,238.837875 201.332291,241.612701 201.225723,244.394867 
	C201.143036,246.553192 201.546585,248.753372 201.265839,250.872940 
	C201.070084,252.350967 200.082367,253.724106 199.448410,255.144089 
	C198.657867,253.820801 197.867325,252.497513 197.071030,250.706528 
z"/>
<path fill="#E2DDBA" opacity="1.000000" stroke="none" 
	d="
M175.282089,241.071014 
	C176.439041,234.084320 177.332642,227.487854 178.675201,220.984100 
	C178.986710,219.474930 180.829056,218.281769 181.966980,216.943176 
	C183.115723,218.257294 185.011002,219.429169 185.292908,220.908478 
	C187.220795,231.025375 188.858215,241.199356 190.429977,251.379532 
	C190.578705,252.342773 189.630096,253.475449 189.190918,254.529449 
	C188.206085,253.693436 186.795273,253.045441 186.325821,251.981934 
	C185.372375,249.821991 185.804581,246.764236 182.090302,246.907776 
	C178.694489,247.039001 178.444717,249.504745 177.791443,252.022888 
	C177.502777,253.135590 175.969879,253.925522 175.001816,254.861984 
	C174.515762,254.596481 174.029709,254.330978 173.543640,254.065475 
	C174.089828,249.875320 174.636017,245.685165 175.282089,241.071014 
M183.969864,241.008102 
	C183.648651,236.496948 183.327438,231.985794 183.006226,227.474640 
	C182.415817,227.493790 181.825409,227.512955 181.235016,227.532104 
	C180.738251,231.240692 180.133942,234.939117 179.782639,238.661423 
	C179.549347,241.133224 180.604843,242.524216 183.969864,241.008102 
z"/>
<path fill="#E4DEBC" opacity="1.000000" stroke="none" 
	d="
M344.882080,235.002548 
	C344.934479,230.174622 345.121460,225.839127 344.944916,221.518478 
	C344.795502,217.863144 346.612854,216.897018 349.825287,217.027023 
	C354.307800,217.208405 358.074158,220.004044 358.778503,224.929428 
	C359.357300,228.976837 360.199890,233.877640 358.514252,237.163025 
	C355.470367,243.095764 356.156647,248.538254 358.071472,254.864502 
	C350.569824,255.534775 355.013611,247.139603 349.918457,246.079590 
	C349.648529,248.294708 349.592499,250.533737 349.020813,252.632278 
	C348.767181,253.563416 347.471863,254.210785 346.649384,254.986969 
	C346.086029,254.153229 345.060791,253.333984 345.034088,252.483383 
	C344.856445,246.826477 344.892426,241.162857 344.882080,235.002548 
M355.173126,232.274704 
	C355.234436,227.976089 355.281189,223.684067 349.725403,220.917450 
	C349.725403,227.721191 349.725403,233.798676 349.725403,240.180878 
	C353.995087,239.316269 354.579956,236.241516 355.173126,232.274704 
z"/>
<path fill="#E1DCB8" opacity="1.000000" stroke="none" 
	d="
M309.612915,253.915054 
	C307.736877,242.443420 305.992371,231.302917 304.449677,220.134521 
	C304.304169,219.081009 305.427887,217.852188 305.962341,216.704773 
	C306.828186,217.676239 308.268585,218.544769 308.464172,219.636353 
	C309.523285,225.546844 310.274475,231.512512 311.131775,237.459152 
	C311.692749,237.465836 312.253754,237.472519 312.814758,237.479202 
	C313.353180,233.706680 313.565247,229.848328 314.527740,226.187286 
	C315.381348,222.940308 313.344269,218.020065 319.783142,216.400284 
	C319.052856,222.188492 318.483337,227.212479 317.771606,232.216248 
	C316.861633,238.614090 315.860931,244.999405 314.851196,251.382538 
	C314.376312,254.384552 313.500488,256.857239 309.612915,253.915054 
z"/>
<path fill="#E3DDBA" opacity="1.000000" stroke="none" 
	d="
M261.574615,241.824341 
	C261.696716,235.534607 261.660675,229.709122 262.015350,223.907516 
	C262.317871,218.959167 265.270752,216.541626 269.815521,216.977539 
	C273.504974,217.331421 276.313721,221.235779 275.652313,225.421631 
	C275.509308,226.326385 274.457581,227.087540 273.824432,227.914841 
	C273.049469,227.237549 272.154510,226.651245 271.545441,225.848145 
	C271.192108,225.382248 271.490723,224.439850 271.156647,223.937561 
	C270.504242,222.956680 269.613800,222.134140 268.821899,221.246033 
	C267.963867,222.140808 266.485291,222.958435 266.362671,223.944641 
	C265.975372,227.060120 266.039764,230.238586 266.033234,233.392914 
	C266.023987,237.880798 265.915009,242.384232 266.272461,246.847092 
	C266.374084,248.115906 267.947937,249.266785 268.846680,250.471741 
	C269.735626,249.431366 270.637817,248.401947 271.509979,247.347687 
	C272.479492,246.175751 273.421570,244.981140 274.375549,243.796387 
	C274.748260,245.378693 275.575867,247.011719 275.406158,248.533524 
	C274.945648,252.662369 272.665405,255.333603 268.198944,255.177139 
	C263.545898,255.014160 262.091461,251.793625 261.753479,247.782578 
	C261.600159,245.962921 261.635956,244.127335 261.574615,241.824341 
z"/>
<path fill="#E0DBB7" opacity="1.000000" stroke="none" 
	d="
M334.280121,255.226959 
	C326.136749,255.197662 326.136505,255.197662 326.174561,247.623642 
	C326.214630,239.648117 326.205658,231.671951 326.312347,223.697311 
	C326.388489,218.005569 330.357239,215.286209 335.647644,217.355377 
	C336.451843,217.669922 337.386414,219.070297 337.294647,219.855515 
	C337.203735,220.633316 335.876465,221.881271 335.116791,221.863098 
	C331.210846,221.769669 330.836487,224.080673 331.039948,227.082306 
	C331.163391,228.903320 331.222443,230.749191 331.071228,232.563965 
	C330.781342,236.042480 331.546356,238.545303 336.127075,238.115402 
	C336.327576,238.534744 336.528076,238.954086 336.728607,239.373428 
	C335.605316,240.538895 334.274323,241.569458 333.408752,242.902298 
	C332.187683,244.782547 331.311157,246.886520 330.586945,248.307205 
	C333.572479,250.176147 335.463470,251.359909 337.354462,252.543640 
	C336.457611,253.439087 335.560760,254.334534 334.280121,255.226959 
z"/>
<path fill="#E1DCB8" opacity="1.000000" stroke="none" 
	d="
M244.924316,217.829300 
	C247.282440,217.476166 249.290237,217.071304 251.230804,217.282928 
	C252.226959,217.391525 253.103104,218.600754 254.033463,219.312607 
	C253.267273,220.185913 252.485382,221.821945 251.737488,221.806549 
	C247.446136,221.718231 247.381592,224.389542 247.547302,227.454742 
	C247.654922,229.445480 247.601791,231.444641 247.634995,233.439774 
	C247.671310,235.621674 247.437744,237.873352 250.733215,238.039841 
	C251.429459,238.075012 252.709457,239.629120 252.570450,240.206512 
	C252.333206,241.191971 251.104736,241.900314 250.439102,242.829956 
	C249.366943,244.327423 247.944397,245.823654 247.636047,247.498322 
	C247.508575,248.190628 249.904099,249.310486 251.103165,250.295563 
	C252.103271,251.117203 253.031845,252.025909 253.992111,252.896057 
	C252.964508,253.664627 252.001541,254.983536 250.898880,255.113037 
	C243.366486,255.997665 242.885132,255.513870 242.892853,248.008530 
	C242.901245,239.860046 242.864563,231.709381 243.061096,223.564804 
	C243.105865,221.709961 244.027908,219.876297 244.924316,217.829300 
z"/>
<path fill="#E5DDBD" opacity="1.000000" stroke="none" 
	d="
M236.864029,79.344757 
	C237.076630,81.758850 237.225266,84.544685 237.179184,87.668488 
	C236.923004,85.243141 236.861542,82.479820 236.864029,79.344757 
z"/>
<path fill="#E5DDBD" opacity="1.000000" stroke="none" 
	d="
M237.689728,119.443817 
	C237.732895,121.423004 237.687317,123.849792 237.370209,126.248337 
	C237.266113,124.110542 237.433563,122.000969 237.689728,119.443817 
z"/>
<path fill="#E5DDBD" opacity="1.000000" stroke="none" 
	d="
M237.274963,108.461868 
	C237.469772,109.471916 237.576569,110.877708 237.579041,112.574463 
	C237.378815,111.529488 237.282883,110.193550 237.274963,108.461868 
z"/>
<path fill="#E5DDBD" opacity="1.000000" stroke="none" 
	d="
M236.750458,67.140778 
	C236.950363,67.520889 237.047638,68.098526 237.002609,68.868912 
	C236.789474,68.487206 236.718658,67.912750 236.750458,67.140778 
z"/>
<path fill="#E5DDBD" opacity="1.000000" stroke="none" 
	d="
M237.117188,104.347206 
	C237.270737,104.547768 237.351395,105.066574 237.327957,105.766159 
	C237.164001,105.519775 237.104156,105.092613 237.117188,104.347206 
z"/>
<path fill="#488B0C" opacity="1.000000" stroke="none" 
	d="
M241.985443,105.002304 
	C242.054123,104.561844 242.122803,104.121391 242.263367,102.964920 
	C242.409943,94.830948 242.484619,87.413002 242.559296,79.995049 
	C242.648499,76.169502 242.824661,72.343437 242.801819,68.518562 
	C242.780029,64.874367 244.181396,62.894508 248.087921,62.922943 
	C265.416229,63.049053 282.745117,63.095936 300.073792,63.177761 
	C303.318573,63.193085 304.910583,64.709755 304.921570,68.088776 
	C304.999084,91.915283 305.121887,115.741745 305.293945,139.567764 
	C305.318451,142.960114 304.154785,145.111679 300.508423,145.120117 
	C286.702362,145.152008 272.896240,145.132965 258.374847,145.132965 
	C260.112396,142.334137 261.982727,139.350693 263.822662,136.348633 
	C265.388336,133.794113 267.134460,131.321228 268.421417,128.630783 
	C271.324951,122.560921 269.133453,115.891006 263.418549,112.702148 
	C257.891937,109.618355 251.364517,111.123047 247.530838,116.510910 
	C245.824066,118.909584 244.381058,121.495918 241.958069,123.822525 
	C241.958069,122.450096 241.958069,121.077667 241.938232,119.102150 
	C241.918381,118.499062 241.797653,118.019463 241.797653,118.019463 
	C241.915161,114.977623 242.032669,111.935783 242.160004,108.076973 
	C242.108353,106.507439 242.046906,105.754868 241.985443,105.002304 
M268.780243,69.947296 
	C261.349915,74.484978 260.293945,78.455772 263.322754,87.131020 
	C261.017181,92.281273 259.046967,96.343987 257.449829,100.548393 
	C257.146729,101.346283 258.322144,102.705811 258.815369,103.806198 
	C259.759399,103.086357 261.145294,102.565598 261.574249,101.613655 
	C263.976776,96.281654 267.777893,92.949898 273.775909,92.951920 
	C279.821411,92.953957 283.423004,96.597588 285.977264,101.716614 
	C286.446747,102.657486 287.820465,103.147186 288.776794,103.845139 
	C289.253601,102.746887 290.408997,101.375397 290.095001,100.595535 
	C288.303589,96.146202 286.162140,91.837814 283.457550,86.012405 
	C286.357208,74.478668 281.100800,67.295090 268.780243,69.947296 
M283.130798,121.871933 
	C286.275726,121.797058 289.466858,122.011734 292.545349,121.520561 
	C294.002625,121.288071 295.244446,119.705429 296.583893,118.734474 
	C295.323822,117.687569 294.163452,115.927505 292.783966,115.734650 
	C289.375916,115.258224 285.832794,115.195724 282.414398,115.585083 
	C280.773285,115.772011 279.291595,117.358559 277.737701,118.311272 
	C279.258179,119.463844 280.778687,120.616417 283.130798,121.871933 
M283.139801,134.764664 
	C286.770782,134.564835 290.423065,134.527451 294.018250,134.055069 
	C294.959473,133.931412 296.361847,132.476318 296.388855,131.596954 
	C296.415863,130.717010 295.065399,129.106506 294.182587,129.005432 
	C290.259491,128.556381 286.268463,128.242798 282.342651,128.500244 
	C280.760162,128.604019 279.281860,130.296249 277.756165,131.265579 
	C279.277130,132.383942 280.798065,133.502304 283.139801,134.764664 
z"/>
<path fill="#4F8E16" opacity="1.000000" stroke="none" 
	d="
M255.950897,157.881409 
	C256.850555,154.900116 257.178406,150.642654 258.688843,150.170822 
	C262.742279,148.904602 261.692200,153.704941 263.195099,155.677887 
	C263.487701,156.062012 263.770325,156.549728 263.812836,157.012161 
	C264.021912,159.286407 264.436920,161.613449 264.092163,163.814209 
	C264.010559,164.334915 261.075836,165.041519 259.807617,164.613525 
	C257.050354,163.683029 254.849548,161.878998 255.950897,157.881409 
z"/>
<path fill="#538F19" opacity="1.000000" stroke="none" 
	d="
M270.818024,156.505249 
	C269.351501,154.464783 268.079224,152.742676 266.201752,150.201355 
	C268.933594,150.201355 270.995483,149.967300 272.970398,150.281052 
	C274.360840,150.501907 276.566406,151.269501 276.751801,152.144073 
	C277.076874,153.677628 276.602020,155.942856 275.554199,157.009979 
	C274.842102,157.735214 272.580811,156.939285 270.818024,156.505249 
z"/>
<path fill="#E5DDBD" opacity="1.000000" stroke="none" 
	d="
M242.279694,80.233398 
	C242.484619,87.413002 242.409943,94.830948 242.197098,102.634247 
	C242.039322,95.503647 242.019699,87.987701 242.279694,80.233398 
z"/>
<path fill="#E5DDBD" opacity="1.000000" stroke="none" 
	d="
M242.034164,130.737778 
	C242.070145,130.739319 241.998184,130.736237 242.034164,130.737778 
z"/>
<path fill="#E5DDBD" opacity="1.000000" stroke="none" 
	d="
M241.826889,105.229668 
	C242.046906,105.754868 242.108353,106.507439 242.075165,107.628349 
	C241.876465,107.150139 241.772400,106.303589 241.826889,105.229668 
z"/>
<path fill="#E5DDBD" opacity="1.000000" stroke="none" 
	d="
M241.738098,118.134445 
	C241.797653,118.019463 241.918381,118.499062 241.863617,118.740189 
	C241.649857,118.755333 241.606430,118.511368 241.738098,118.134445 
z"/>
<path fill="#4D8B14" opacity="1.000000" stroke="none" 
	d="
M289.426422,221.756912 
	C290.782104,222.269943 292.680908,223.004898 292.707733,223.802795 
	C292.976196,231.787781 293.016327,239.784531 292.875763,247.773636 
	C292.859528,248.696335 291.355713,249.592865 290.541595,250.501526 
	C289.762329,249.738998 288.296967,248.965851 288.308563,248.215561 
	C288.443878,239.477737 288.801758,230.743347 289.426422,221.756912 
z"/>
<path fill="#4F8E16" opacity="1.000000" stroke="none" 
	d="
M229.949249,225.228851 
	C231.941025,233.709045 230.755508,237.768219 225.396912,240.192017 
	C225.396912,233.929031 225.396912,227.905212 225.396912,221.881393 
	C225.764450,221.692459 226.131973,221.503525 226.499512,221.314575 
	C227.594391,222.490799 228.689255,223.667007 229.949249,225.228851 
z"/>
<path fill="#569020" opacity="1.000000" stroke="none" 
	d="
M183.664246,241.335266 
	C180.604843,242.524216 179.549347,241.133224 179.782639,238.661423 
	C180.133942,234.939117 180.738251,231.240692 181.235016,227.532104 
	C181.825409,227.512955 182.415817,227.493790 183.006226,227.474640 
	C183.327438,231.985794 183.648651,236.496948 183.664246,241.335266 
z"/>
<path fill="#538F19" opacity="1.000000" stroke="none" 
	d="
M355.148438,232.705338 
	C354.579956,236.241516 353.995087,239.316269 349.725403,240.180878 
	C349.725403,233.798676 349.725403,227.721191 349.725403,220.917450 
	C355.281189,223.684067 355.234436,227.976089 355.148438,232.705338 
z"/>
<path fill="#E6DEBF" opacity="1.000000" stroke="none" 
	d="
M269.140747,69.787598 
	C281.100800,67.295090 286.357208,74.478668 283.457550,86.012405 
	C286.162140,91.837814 288.303589,96.146202 290.095001,100.595535 
	C290.408997,101.375397 289.253601,102.746887 288.776794,103.845139 
	C287.820465,103.147186 286.446747,102.657486 285.977264,101.716614 
	C283.423004,96.597588 279.821411,92.953957 273.775909,92.951920 
	C267.777893,92.949898 263.976776,96.281654 261.574249,101.613655 
	C261.145294,102.565598 259.759399,103.086357 258.815369,103.806198 
	C258.322144,102.705811 257.146729,101.346283 257.449829,100.548393 
	C259.046967,96.343987 261.017181,92.281273 263.322754,87.131020 
	C260.293945,78.455772 261.349915,74.484978 269.140747,69.787598 
M274.412598,75.347008 
	C270.353516,75.711266 268.242737,77.935814 268.962982,81.967537 
	C269.639038,85.751846 272.853912,86.650505 275.856842,85.670563 
	C277.729523,85.059456 280.617310,82.007828 280.287384,81.243217 
	C279.313080,78.985100 276.964478,77.319946 274.412598,75.347008 
z"/>
<path fill="#E1DCB8" opacity="1.000000" stroke="none" 
	d="
M282.714966,121.820465 
	C280.778687,120.616417 279.258179,119.463844 277.737701,118.311272 
	C279.291595,117.358559 280.773285,115.772011 282.414398,115.585083 
	C285.832794,115.195724 289.375916,115.258224 292.783966,115.734650 
	C294.163452,115.927505 295.323822,117.687569 296.583893,118.734482 
	C295.244446,119.705429 294.002625,121.288071 292.545349,121.520561 
	C289.466858,122.011734 286.275726,121.797058 282.714966,121.820465 
z"/>
<path fill="#E2DDBA" opacity="1.000000" stroke="none" 
	d="
M282.729431,134.692657 
	C280.798065,133.502304 279.277130,132.383942 277.756165,131.265564 
	C279.281860,130.296249 280.760162,128.604019 282.342651,128.500244 
	C286.268463,128.242798 290.259491,128.556381 294.182587,129.005432 
	C295.065399,129.106506 296.415863,130.717010 296.388855,131.596954 
	C296.361847,132.476318 294.959473,133.931412 294.018250,134.055069 
	C290.423065,134.527451 286.770782,134.564835 282.729431,134.692657 
z"/>
<path fill="#4E8D14" opacity="1.000000" stroke="none" 
	d="
M274.783081,75.384903 
	C276.964478,77.319946 279.313080,78.985100 280.287384,81.243217 
	C280.617310,82.007828 277.729523,85.059456 275.856842,85.670563 
	C272.853912,86.650505 269.639038,85.751846 268.962982,81.967537 
	C268.242737,77.935814 270.353516,75.711266 274.783081,75.384903 
z"/>
</svg>